/* XPM */
static char *_e184b8f832c4ae2efc1faf793185d8268VqIcXiWmNL0ijn[] = {
/* columns rows colors chars-per-pixel */
"74 64 246 2 ",
"   c None",
".  c #2D0C00",
"X  c #3B1401",
"o  c #351100",
"O  c #461A03",
"+  c #561B04",
"@  c #592606",
"#  c #593A07",
"$  c #522D0A",
"%  c #672808",
"&  c #6A340B",
"*  c #77390D",
"=  c #74260A",
"-  c #5D4211",
";  c #64440D",
":  c #69480D",
">  c #6D4E13",
",  c #664915",
"<  c #774B11",
"1  c #7A5B14",
"2  c #7D5C1B",
"3  c #755615",
"4  c #764D0F",
"5  c #735C26",
"6  c #6C5123",
"7  c #74602E",
"8  c #7C621E",
"9  c #8B3500",
"0  c #8C3802",
"q  c #913D01",
"w  c #913C10",
"e  c #8A4603",
"r  c #9C4501",
"t  c #944B00",
"y  c #9A4D00",
"u  c #954506",
"i  c #875A0A",
"p  c #9C5302",
"a  c #9B5605",
"s  c #884711",
"d  c #994A11",
"f  c #855C16",
"g  c #965315",
"h  c #A44A01",
"j  c #A25301",
"k  c #AB5500",
"l  c #A45C03",
"z  c #AB5D02",
"x  c #A95B09",
"c  c #B35E00",
"v  c #A95B18",
"b  c #83631D",
"n  c #8A651C",
"m  c #8B6A1C",
"M  c #896416",
"N  c #936B1C",
"B  c #976A17",
"V  c #9A751B",
"C  c #926B10",
"Z  c #A56201",
"A  c #AC6303",
"S  c #AD6B03",
"D  c #AC6209",
"F  c #B46302",
"G  c #B46B03",
"H  c #BC6C03",
"J  c #B86907",
"K  c #A6730C",
"L  c #B47204",
"P  c #BB7402",
"I  c #BD7903",
"U  c #BC730A",
"Y  c #BA780D",
"T  c #A56915",
"R  c #B56917",
"E  c #A37C1B",
"W  c #AC7D1B",
"Q  c #A77716",
"!  c #B67915",
"~  c #8D6B23",
"^  c #8B6621",
"/  c #946D23",
"(  c #937422",
")  c #9B7522",
"_  c #9C7B23",
"`  c #9B7A2C",
"'  c #927431",
"]  c #A37D24",
"[  c #A67927",
"{  c #A97E31",
"}  c #C26D02",
"|  c #CA6E00",
" . c #C27D03",
".. c #C67604",
"X. c #D67901",
"o. c #C37D14",
"O. c #967E45",
"+. c #BC800B",
"@. c #A9841B",
"#. c #B2821C",
"$. c #BB841C",
"%. c #B98818",
"&. c #BB961D",
"*. c #9E8731",
"=. c #A58324",
"-. c #AB8225",
";. c #AC852B",
":. c #AC892C",
">. c #A98627",
",. c #B48523",
"<. c #BB8B24",
"1. c #B2842B",
"2. c #B38D2B",
"3. c #B88B27",
"4. c #B9932C",
"5. c #AC8835",
"6. c #B58C34",
"7. c #B89736",
"8. c #AE9335",
"9. c #BCA43D",
"0. c #C58204",
"q. c #CB8503",
"w. c #CC8C0C",
"e. c #C88709",
"r. c #D38B02",
"t. c #D78804",
"y. c #DA9608",
"u. c #CB8B13",
"i. c #C38C1C",
"p. c #C78817",
"a. c #D58D15",
"s. c #CD931C",
"d. c #C8961A",
"f. c #D39414",
"g. c #D49915",
"h. c #D99917",
"j. c #CD920C",
"k. c #E28B03",
"l. c #E98800",
"z. c #E59A06",
"x. c #EC9D0F",
"c. c #C7A11D",
"v. c #D4AB1D",
"b. c #DAA51A",
"n. c #DAB21E",
"m. c #DEA20F",
"M. c #ECA20C",
"N. c #E9A508",
"B. c #F5AA06",
"V. c #E4A414",
"C. c #EEAA14",
"Z. c #EAA51B",
"A. c #EBAC1C",
"S. c #E8A616",
"D. c #F2AC18",
"F. c #EDB21C",
"G. c #E8B71A",
"H. c #F5B31C",
"J. c #F6B416",
"K. c #FAB308",
"L. c #C49325",
"P. c #CA9925",
"I. c #D29921",
"U. c #C59836",
"Y. c #C9972B",
"T. c #DBA623",
"R. c #DDAC25",
"E. c #D6A528",
"W. c #DCB326",
"Q. c #CAA63A",
"!. c #D6A836",
"~. c #DAB535",
"^. c #CEAB32",
"/. c #E6AC25",
"(. c #E4B424",
"). c #E6BB24",
"_. c #E3B42B",
"`. c #ECBC2C",
"'. c #E8B827",
"]. c #F5BB24",
"[. c #E4BA33",
"{. c #E5B935",
"}. c #EDC12E",
"|. c #EFC121",
" X c #F5C529",
".X c #EDC334",
"XX c #ECC43A",
"oX c #EECA3D",
"OX c #EAC639",
"+X c #F2C534",
"@X c #FACC34",
"#X c #F4CC3C",
"$X c #FACE3A",
"%X c #F6C834",
"&X c #F8D13E",
"*X c #9C864A",
"=X c #BB9842",
"-X c #A88D45",
";X c #BBA244",
":X c #B9A663",
">X c #C19A41",
",X c #CEA34B",
"<X c #CAA844",
"1X c #D5A947",
"2X c #D7B644",
"3X c #C7AB51",
"4X c #D3AC55",
"5X c #CCB355",
"6X c #D4B556",
"7X c #E5B84C",
"8X c #CCBA72",
"9X c #E6BF60",
"0X c #F1CD42",
"qX c #F5D245",
"wX c #F9D543",
"eX c #F6D34A",
"rX c #FAD847",
"tX c #F9DA5C",
"yX c #F6D956",
"uX c #EAC750",
"iX c #D4C37A",
"pX c #DBC264",
"aX c #F4CD6A",
"sX c #F6DA62",
"dX c #FAD678",
"fX c #E6CE6E",
"gX c #FAE36A",
"hX c #FBE37A",
"jX c #FCE676",
"kX c #DBC054",
"lX c #FCDB86",
"zX c #E3D48A",
"xX c #FDEB88",
"cX c #FCED9C",
"vX c #FDEC94",
"bX c #FEF29A",
"nX c #E2DBAC",
"mX c #FEEDA5",
"MX c #FEF4A9",
"NX c #FEF6B8",
"BX c #DDD39B",
"VX c #FFFBCC",
"CX c #FEF8C3",
"ZX c #FFFCD4",
"AX c #FFFDDB",
"SX c #FFFEE4",
/* pixels */
"                                                                                                                                                    ",
"                                                                                                                                                    ",
"                                                                                                                                                    ",
"                                z.z.                                                                        M.z.M.                                  ",
"                              H.C.A.                                                                        `.'.H.@X                                ",
"                            #X@X%X@X                  B n n V 2.P.E.E.~.~.uXuXfXzXBXnXnXnXBX9X,X5.            $X&X&X_.                              ",
"                          E..XrXwX&X            <.<.V C N ~ ] c.n.|.}.%X#XeXyXhXmXCXSXSXSXAXlX!.1 i +.Q       &XrXoXf.                              ",
"                          w.R.#XqX              L.%.K V N ( ] c.n.}.`.+X#XqXyXhXcXCXAXSXSXAXlX!.1 i j.K         {.W.w.w.                            ",
"                          0.g.T.Q.9.7.2.        i.<.Q Q N ~ _ c.W.)..X.X$XeXtXhXcXCXAXSXSXZXlX!.i C w.!         2X2X2Xd.                            ",
"                           .e.Q.<X#.@.@.>.      %.<.Q W ) ~ _ c.n.|.}.+X#XwXtXdXcXNXZXSXSXZXdXU.M C d.%.    Q.^.Y.E.kXfX      z.                    ",
"                y.N.      P +.5XW       Q @.2.@.%.L.W W _ ~ _ &.W.).}.+X#XeXtXhXcXCXZXAXSXCXdX!.f K d.Y.~.Q.Y.      P.kXfX    F.x.                  ",
"                M.H.      P U.8.B               #.L.W ,._ ~ _ &.n.).}.%X$XeXtXhXcXNXZXAXAXCXaXY.m Q s.<.              4.fX  &X@X X                  ",
"                ].@X$X      3X_                 W L.#.,.] ~ ( <.n.).}.+X#XqXtXhXcXNXVXZXZXNXaXY.B +.s.    r.k.M.@X0XI.-.pX  &XrXwX+X                ",
"                &XwX&X      ;X( R.].z.k.        K L.#.3.[ ~ ( &.n.).}.+X$XeXtXhXcXNXVXZXZXMX9XU.N %.s.      S.].@XoXg.@.6XkXoXoX_.I.                ",
"              /._.0X0X      ;X( ~.].F.N.        K L.,.<.[ ~ ~ &.n.).}.+X#XeXtXhXcXNXCXVXVXmX7X6.B p.s.      `.$XwX#Xb.W 5X,XT.R...J                 ",
"                ..T.R.    0.7.' ~.&X#X            <.,.<.=.~ m &.v.).}.%X0XeXtXhXvXNXCXCXCXvX7X6.E d.I.        $XqX[.b.-.5X  e.w.H                   ",
"                J e.u.   . .L.` 7.rX              $.3.<.,.~ ^ @.v.).`.#X#XeXtXhXvXNXCXNXNXlX7X{ E s.s.              u.>.5X! 0...}                   ",
"                } }  .q.I  .$.5.V                 %.4.<.1.~ m -.v.).}.+X#XeXsXhXvXMXNXNXNXdX1X[ W s.s.                5.6X  I I         N.y.        ",
"      q.          H I I P  .%.=Xb q.r.            Q L.<.3./ b E v.G.`.+X#XeXtXhXvXMXNXNXmXdX1X[ #.I.p.        y.x.].Y.;X4X          ~..XA.(.        ",
"      V.z.'.[.      L       .XU.*.Y N.            K 4.,.3./ b E c.W.`.%X#XeXtXjXxXMXMXMXcXaXU.) $.I.          S.A.].4.6Xi.        R E.0XoX.X        ",
"      `.`.`.XXp.        u.f.XX~.=XN                 4.,.3.) 8 V c.G.`..X#XqXtXjXxXbXMXMXcX9XU.[ i.I.            %X~.=X1Xp.0.      F I.OXXX          ",
"        oX0XXXo.F       e.f.oX0XU.`                 <.3.3.) 2 N d.n.`.+X#XqXtXgXxXbXbXbXlX7X{ T i.I.            _.:.4X!.j. .u.  H J I.~.oX          ",
"        ~.OX~.i.F     0.0.g._.oX^.6.b               #.4.,.[ 3 n &.R.'..X#X&XyXjXjXbXbXbXlX,X[ T s.p.              =X,Xs.w.0. .  G L e.i.            ",
"          ~.I.s.H U   I  .w.f.h.w.{ 5.3             Q 4.,.[ 2 M %.b.'.`.+X#XyXgXjXxXxXxXaXU.^ W P.o.            5.4Xf.    w.f.w.G P L               ",
"              I I G 0.0.e.    z.z.  5.`             Q 2.1.[ b 3 @.c.(.`.+X#XeXgXjXjXxXxXfX,.f W i.            ( ,X!.x.D.    V.+.I r.                ",
"                L L L m. X  H.C.A.    { )             2.2.,.b 3 V g.R.`.`.#XqXyXjXjXjXjX4X) f ,.i.            <X,X.X%X X@X      G                   ",
"                  e.L P   qX@X%X$X      1.(           ,.6.;.^ > V d.R._.|.OXqXyXgXjXjXdX7.f M i.!           >X,X  `.$XrX#XT.            |.G.y. . .  ",
"                  S P     .XwXwX$X        5.)         E 4.;.( > M %.v./.}.OXoXeXtXgXgXuX{ < B i.          >X,X  c   eXqX[.w.      $.f.G.|.A.t.0.    ",
"        A.|.G.j.        w.T.oXqXeXF         5.]         4.5.) > 1 #.I./.W.}.OXqXtXsXsX4X^ : W !         Q.,X    ..|   R.b.e.u.    Y f.G.|.B.z.r.    ",
"    0.r.V.|.|.b...      q.j./._.  | ..        1.=.      :.6.[ 3 > Q P./.W.|.OXqXyXtXyX=X> 4 $.T       <X,X      t.X.  u.j.0.e.  J I h.C.V.N.N.      ",
"    e.r.N.J.G.m.e.J     0.e.f.  X.X.t.            >.    =.8.;.f : C &.I.n.).}.OXeXeXuX` & i $.    2.<X        D.V.k.B.  e.0.0.J G P q.b.V.V.        ",
"      y.N.N.V.m.j.U U p. .I 0.  B.k.C.J.            1.m   6.5.n ; M %.P.v.n.}.OX0X0X2X2 # B Q   4.1X          H.J.D.J.F. XV.I S L P G I             ",
"          h.V.f. .P P Y +.m..X].J.J.J.D.    r.        6.V ) 8.( : 1 W L.b.n._..XXX{.7.& : W B 7.1X      z     ].].|.A.V.y.P L L                     ",
"              G G P P +.+.q.C./.H.].]. X    z.          6.E -X5.3 > V $.s.T.R._.{.!./ # f Q 4.          H H     A.'.f.!       r.                    ",
"                          S   o.f.F.'./.  z.V.F.          E 5.5.n : M #.L.P.E.E.E.2.: & T T Q.        j. .}     o.f...z       Y                     ",
"                      q.      Z U f.u.    H.].@X              8.` > 1 Q <.L.L.L.%.N # 4 R             V.h.t.M.  G H D l       x q.z.K.B.X.          ",
"                      k       z z U H   rX@X@X$X              5.*.2 > b ] 1.{ W m : ; C               Z.Z.D.Z.    z j j   x h H y.B.K.l.| c k       ",
"              C.K.N.r.c h     z j k A   qX#XrXrXeX              N m : > f ^ ^ f ; # i g          .P   A.Z.Z.f.    j t G F r k | k.M.M.l.X.G         ",
"        A F | X.K.B.z...k h x   y y j   T.[.#XoXE.S               n 3 - & , : # $ : i         g.q.X.  o.f.u.x     p p G r r k } X.l.l.l.t.          ",
"          k } l.B.N.k.X.c r h J D y     w.f.W.T.  ..0.u.            8 , > > , , : 4         (.R.a.t.  D U D p w.    Z j y j k h H l.l.              ",
"            | l.l.l.l...c k r j U p     y.q.j.f.    r.b.R.          -X' m V V ( _           [.W.b.G.    a y p L P      .                            ",
"              t.X.k.X.k h k z  .I A   P L I  .0.    a.b._.[.        zX*Xb 4.=.*.fX        ~.~.OX_.[.    y e y p A                                   ",
"                                G     D p I P  .    '._.~.~.          O.5 ` ^ *.          %.^.W.E.~.    e e       d r 9 9                           ",
"                              u 9 9 q p G   P P   G.b.W.~.W.i.        :X6 b 1 8.          Y d.%.! ! C.  e Z z y u q 0 9 r o.a.                      ",
"                          Z.o.h 0 0 q q u l       r.%.L.d.d.+.        iX7 _ m ;X          L L S L   I         e t p D R o.Z.S.t.                    ",
"                        h.D.D.a.J D y t t t           S S L K S       8X7 _ N ;X          Z Z S                 t t J h./.D.z...H                   ",
"                      } | t.C./.h.U p p l   r.Z         S Z Z Z       iX7 ] ( ;X          a Z     o...G c y.      t x a.Z.C.V.q.} c                 ",
"                    j G  .V.Z.Z.h.R l       y.j 9 q u a A Z l l       iX5 >.) 7.        Z S L I } } H H } p._.          h.h.h.j.q.                  ",
"                      H e.m.h.h.f.          F q 9 9 0 q t p   S S     iX7 >._ 7.              I  .e.p.p.s.{.$X@X                                    ",
"                                          /.a.R x x j t a           3X8X5 :.=.8.~.               .0.f._.XXrX@XH.M.                                  ",
"                                        z.M.D.Z.f.Y p j             iX:X8 :.>.:.2X                 .u._.0XwX$X].z.y.                                ",
"                                      H } q.Z.Z.h.R l               zX*X~ 4.:.=.2X2X                  R.0X+X$X%XD.z.                                ",
"                                    y F  .m.S.Z.Z.                zX8XV @.2.2.=.7.2X                                                                ",
"                                    t F 0.j.a.                  7.5X8.Q @.2.>.@.=.7.7.U.                                                            ",
"                                                            E.{.~.8.=.( =.=.=.=.=.:.Q.pXaX                                                          ",
"                                                            !.^.*.8 1 m C V @.@.m 1 ' 6XaXU.                                                        ",
"                                                        = g ^.^.( - , b ) -.&.V 2 # 7 3XaXU.d                                                       ",
"                                                      = = % f N 3 - , b ) :.2._ b , 6 { { g d d                                                     ",
"                                                      % @ @ % % & & * & * * < 0 0 < s s g v R v w                                                   ",
"                                                      % + O X X O O @ @ @ & & & * < s g g v R v d                                                   ",
"                                                      % + O o o o X X X O O @ @ % & < s g T R v w                                                   ",
"                                                        + X o o o X O O O $ @ @ & & * s d d d s                                                     ",
"                                                              . . . o o o O O $ @ @ % &                                                             ",
"                                                                                                                                                    "
};
