/* XPM */
static char *_44069e080374ec7887a835e7c7988fcENd5aX6hiyIXQlnz[] = {
/* columns rows colors chars-per-pixel */
"32 32 135 2 ",
"   c None",
".  c #6C1919",
"X  c #771717",
"o  c #7F1616",
"O  c #741914",
"+  c #7C1913",
"@  c #721918",
"#  c #737373",
"$  c #787777",
"%  c #777877",
"&  c #787877",
"*  c #7B7C7B",
"=  c #831A0F",
"-  c #8C190E",
";  c #831615",
":  c #891612",
">  c #9B1210",
",  c #AC0F0E",
"<  c #B60F0A",
"1  c #BC0E09",
"2  c #A6110D",
"3  c #A11010",
"4  c #D80805",
"5  c #E10801",
"6  c #7F807F",
"7  c #80817F",
"8  c #808280",
"9  c #818280",
"0  c #818380",
"q  c #808281",
"w  c #818281",
"e  c #818381",
"r  c #828280",
"t  c #828281",
"y  c #828381",
"u  c #818282",
"i  c #818382",
"p  c #838382",
"a  c #808180",
"s  c #828480",
"d  c #828481",
"f  c #828482",
"g  c #838482",
"h  c #838582",
"j  c #838483",
"k  c #838583",
"l  c #848582",
"z  c #848483",
"x  c #848583",
"c  c #848683",
"v  c #848584",
"b  c #858584",
"n  c #848684",
"m  c #858684",
"M  c #858784",
"N  c #848685",
"B  c #858785",
"V  c #868684",
"C  c #868685",
"Z  c #868785",
"A  c #868885",
"S  c #878986",
"D  c #878887",
"F  c #878987",
"G  c #888885",
"H  c #888887",
"J  c #888987",
"K  c #898987",
"L  c #888A87",
"P  c #898988",
"I  c #888A88",
"U  c #898A88",
"Y  c #888B88",
"T  c #898B88",
"R  c #8A8B89",
"E  c #8A8B8A",
"W  c #898C88",
"Q  c #8A8C89",
"!  c #8B8C89",
"~  c #8A8D8A",
"^  c #8B8D8A",
"/  c #8B8C8B",
"(  c #8C8D8A",
")  c #8C8D8B",
"_  c #8C8F8A",
"`  c #8C8E8B",
"'  c #8D8E8B",
"]  c #8D8F8B",
"[  c #8C8F8C",
"{  c #8D8F8D",
"}  c #8E8E8C",
"|  c #8D908D",
" . c #8E908C",
".. c #8E918C",
"X. c #8E908D",
"o. c #8F908D",
"O. c #8E918D",
"+. c #8F918D",
"@. c #8F908E",
"#. c #8F918E",
"$. c #8F918F",
"%. c #8F928E",
"&. c #90918E",
"*. c #90918F",
"=. c #90928E",
"-. c #90928F",
";. c #91928F",
":. c #90938F",
">. c #91938F",
",. c #929391",
"<. c #919490",
"1. c #919590",
"2. c #929490",
"3. c #929591",
"4. c #939591",
"5. c #929690",
"6. c #939691",
"7. c #939592",
"8. c #949591",
"9. c #949593",
"0. c #949692",
"q. c #959792",
"w. c #959693",
"e. c #949892",
"r. c #969894",
"t. c #969995",
"y. c #979995",
"u. c #979996",
"i. c #989996",
"p. c #989A96",
"a. c #989B96",
"s. c #999D98",
"d. c #9A9D98",
"f. c #9B9D99",
"g. c #9B9E99",
/* pixels */
"            . . . . . .                 . . . . . .             ",
"        . . . @ O @ . . . .         . . . . O O . . . .         ",
"      . . o # # # % % 2 X . .     . . X > # # # # , o . .       ",
"    . . > # # # % % * * * : . . . . : % # # # # # # # > . .     ",
"  . . > # # # $ * * 6 6 7 4 ; . . ; * * $ $ # # # # # # > . .   ",
"  . o # # # $ * * 6 7 7 j m 1 . . 1 a * * $ $ # # # # # # o .   ",
". . # # # $ * * 6 j j m F J 5 : : m e a * * $ # # # # # # 2 . . ",
". @ # # $ * * 6 j l F R Q ' Q < < R m p 7 * * # # # # # # # . . ",
". X # # $ * * e m F R ' | %.%.%.' Q F l 7 6 * % # # # # # # . . ",
". X # # & * 7 l m Q ' %.4.e.4.,.%.' R F j 6 * * # # # # # # O . ",
". X # # * * e l J Q %.,.e.r.r.r.>.%.Q J c 7 * % # # # # # # . . ",
". . # $ * * e m J ' =.8.r.f.f.r.8.=. .W c j 6 * # # # # # # . . ",
". . # # * * e m R Q =.4.i.f.f.a.w.,.' Y F 6 6 & # # # # # # . . ",
"  . o $ * * e l Y ' %.4.r.i.r.r.4.$.Q J j 7 6 % # # # # # O .   ",
"  . . $ * * 6 l F Q } =.4.e.w.4.%.} R R j 6 * % $ # # # # . .   ",
"  . . + $ * * l l R Q %.=.=.,.=.%.Q R m j 6 * $ # # # # O .     ",
"    . . - & 6 6 l m R ' ' ' ' ' Q R m m 7 * * $ # # # + . .     ",
"      . . - * 6 e j m m W W W W F m j q * * * # # # o . .       ",
"        . . - * * e e l l m F c m e 6 6 * * $ # # + . .         ",
"        . . . = * * a e e j 7 7 e q * * * # # # + . .           ",
"          . . . ; * * * 7 6 6 6 * * * % $ # # + . .             ",
"            . . . + * * & & & * * * # # # # O . .               ",
"                @ . O # % % % # $ # # # # @ . .                 ",
"                  . . O # # # # # # # # O . .                   ",
"                    . . O # # # # # # @ . .                     ",
"                      . . O # # # # O . .                       ",
"                        . . O # # O . .                         ",
"                          . . O O . .                           ",
"                            . . . .                             ",
"                            . . . .                             ",
"                              . .                               ",
"                                                                "
};
