/* XPM */
static char *_c32a69b5cce46d9c9a3ef7f8ee869d32uNYTMdJRYmxV060[] = {
/* columns rows colors chars-per-pixel */
"64 64 41 1 ",
"  c #343434",
". c #3C3C3C",
"X c #434343",
"o c #4C4C4C",
"O c #545454",
"+ c #5B5B5B",
"@ c #646464",
"# c #686867",
"$ c #6B6B6B",
"% c #70706F",
"& c #747474",
"* c #787777",
"= c #787877",
"- c #777878",
"; c #7C7C7C",
": c #807F7F",
"> c #7F8080",
", c #838383",
"< c #888887",
"1 c #888788",
"2 c #8C8C8C",
"3 c #8F908F",
"4 c #8F9090",
"5 c #939393",
"6 c #989797",
"7 c #989897",
"8 c #979798",
"9 c #989798",
"0 c #979898",
"q c #9B9B9B",
"w c #9FA09F",
"e c #9F9FA0",
"r c #9FA0A0",
"t c #A3A3A3",
"y c #A8A8A7",
"u c #A7A7A8",
"i c #A7A8A8",
"p c #ABABAB",
"a c #B3B3B3",
"s c #BCBCBC",
"d c #C4C3C4",
/* pixels */
"&;$;,8772-#@#;et3,,:*#+@@@O;qu57,&@++;q2,&%%#@++#24,1e2-%&2--+%:",
"$;;87t78,;$&0pp73pe1;+O&&&$8qt85,$+@%5w8,;%$@OO+,55;;4;@+@:$Oo+-",
"29aayt41;=#-paq32pt<*+#;;;,4542,&@oO#275,;$@##&2e41&&,-+OO@O.X#8",
"ptap80>2-=@&yw5;;45;%#;,,;;;2,,$@+O$,35q4,%@:4et02;$O$&;&-#o +es",
"q8tp8;&3,;#;751&%-;;,2,&,,,;1,*#+$#&;18q0:%%4te72,#XX+;1;*-,;aaa",
"51-;825yq114t,;&@&2e62;%,258q7,%##;,215q8247pt72:%O.O#;,:,1q5aep",
"1,;;aapur578t5,,$,7u92&+&5qt852&#+;,58ttq8tut82,&OXo&0uq5qup5u8e",
"7,,1wuupt2q2qq1;@;655,;+&qt6,&;;>&8qwtwuuqe7q<,&OXX$1880utt5,55e",
"8,58q8852>24q71&$;2,,;-+-u7,;@#;52yr778q511,;&&#o.o;<58qe5722qqq",
"&$,55254,#&,e5,&&,288,&@;p7,*$&;25p7q742,&#&,;#+Xo@22187,,,8q8,;",
"&$&1525,;#@-,3586ttq2;##&q72&%&$&2t8852,$+O@55&+XO;ypyua965981;;",
"+@$&,:1:&@+%&,0uupuq<,$$;221&&&&&2r21,1&OXO,eq,$@;aaauwaut652;$+",
"O+$$$#-&@++@#>upupuq3t8;;1835;;&;752,2,%oX+5t9212qdaputtut2:;@OO",
"$#@+@@&@+O@&,7uut778qtt7585,751,24,;&-$OO@,u7557wtsaptq575<&@##&",
";;$+@&:;$+%,qttpteq577877q51753,1;;#++OO#;5u852upqpapt8,2,&@O$@$",
"1,1,385<=%3taw88qq7555>7pat2<,2;;@+ooOO+287pq77pt7tyt71-<,$+@&&&",
",28838121,upa03127utq<#qtu7,&;,,$OXooO&5t12up6qtq0085<,*;1;,1:&@",
",122,,,<2<0tt53;:,qq8,#ttr5&;52>+O+@#;ty757pauuq5252>&&&-177e<,-",
"qiq8<&80w85qq<;&;;788&+4q4;&1tu51,7,$;ee77pppuput2;,$@@$%<ut5$&8",
"t755,,tw5<,12>,-,,82,$O-5&&;0uaqq,8pq7uq7uptu7tuuq,;$@@,13tq5,7a",
"rr28utpu8,;,,>;;>,1,;@O&5527e5utq,;qptysapu7q2qq281>$@@57qpq85tp",
"t8;,7q72,2,511;##&&$+@$&,7utq55p752tyqqapwt75,,4;;,>&@$7q77tappp",
"73,,pp0,2ppu0,#@@&&&@$$&;8at8<,tt0055,5t815821&:&#,;%@&tqq0qi78q",
"u7,,5qt7yapq,@oO%,1,$#@*2qtq52,557052&;3,&;5;-@&;;<;&;2ptq88t27t",
"pq218tpppuq5,%#5py85#@&,2551<,,:;<52,%&,,&&4,&@@$,72;,7uu752q7pp",
"tq2,27ptq512587asy2;O+w7q55,:;>&$,55;#;q2;#,:;#@@1qq55tr72;:rruq",
"55,17uu78,,qapqpda2#O#syq4<&%&%##%;<>;8p72&,15;&#8tt85p72,#$turq",
",,;>,1525,&0pt15aap7&,suptt5;#O+@$$-,18q5;@170;;,pteq5up4>$@8tq5",
">&&;-&251;-7u8=5saq<;qayt75321#++$&&>,232;&qq8&,uaapt517q2;#;772",
"&&&&##&,,,>552;8pit8&2aau72,,;&&,%&%>;,<,&-75&#2pt7u81;,22;@$4q,",
"&$@+XX+;1>,1,;;25q2,;qsat81;;$;>e,;+@#;:;;=3,+&upq882,&-;;#O@45:",
";&@+o+;<,;;,,;**&5q7;852<25,>#;,81$##;,,&&#&@+1q8=;,,&#@&+X+,q8<",
">&#++;q2,-%%#@++#15,1t2;%&2&&@%;&:#;,9q71;@@#;qt2,,;=#+@@@+;qu57",
",&++$5t5:;%$@OO+,55;;2;@+#;#Oo+&$-;57t98,;$-0pp75pw1;++&&$$8qt85",
"&@OO#395>:%@##&2r5,&$,&+OO@O.X#829aaut3<;-#&paq32pt<=+@;;;>5352,",
"++O$;58q4,%@;5eu72;#+$*;--@O +espeaa88:2-;@&pw5;;55;&#;,,;;;1,,$",
"+$#-;,8e8:$%5qq72,#XX+;,;&;,;aaaq8tp8>-3,;#;781&$-;;>1,&,,,;1<;#",
"##-,22478240pt72>$OXO@;,:,195pta51&;515y7115t,;&@&2w72;$,158q7,&",
"@+;,58ttq8ttu82,&OXX*7yq5qup5u8e2,;;aapue578t5,>$,qt72&@&3qt552&",
":&8trrtuuerq71,&OXX%1899utt8,55t8,<2quupt2q2q71;#;855,;+&qt8,&;-",
"52pq70875<1;;&&#oXo;,55qq8821tqq5,58e8852:44q72&$;1,,;;+;u7,;@$;",
"25p7qq52,&$&,>#+Xo@22280,,,778,;&&,24454,$&,q5,&*,388;&@;y7,;#&-",
"&2t7051,$+O@55&+Xo>tppua705751;;&$&1524,;#@&,5587ttq2;##&q72&%&$",
"&2e2<<1&OXO,tq:#@;asairaut852;$++@$*::2:&@+$&,7yupuq1,$$-222&-&%",
":852,2,$OX+5t0512qdapyttut2:;#OOO+##&#-%@++@#,tpupyq5t5;;1854:&&",
"22,;&&$OO@,t7557wuaaprq375,&@##&&@@+@@%@+O@&,8utq7q8qtt0563,q52,",
"1:;$++OO@;5p822upqpapw0,4,&@O$@$;&&+@&:;$+&:qttpttq86787qq51955,",
";@+oooO@287pq87ptqtpt01;1,#@+&&$1,<,4851-$5tat887q7583;7pat21,2;",
"#Oooo+&5t11tp7qtq77841,-;1;,2,&@>25835221,upp72126utq1#7uy7,&;,;",
"+O+@@;tu84qpapuq5254:&&&-17qq,,;,225<,,,217tu54,,,q78,$ttr5&;82,",
",,q,$;tw77apptppe1;,$@+%$<ut5$&0quq71&80r05qq1;&;;q88&+3q2;&,tu5",
"7,5uq7tt7uptu7ttuq,;%@#,14tq5;0st725<,tw8,,12,;;;,82,$O=5&&;0taw",
"q,;qptpaapu7q2qq452:%+@59quq75tprw27utpu5,;,,,;;,,2,;@+%533qt8ut",
"742tyqqauww85,,2;;,;&@$7qq0uapppt8&,7q72,1,811;##&&#O@$=,qut755p",
"u0055<5w51582,;,&#,;&#&tqq9qu77q75,,pu8,3pat8,#+@&&-@$$&-6at8<,t",
"5785<&>5,&;8:&@&:;1;--2yt788w2qti71,5wqqyapq,@oO$,1,$#@=3qtq32,5",
";144,$&,>;%2,&@@#,72,,9uuq5277pppq2<5uppput5,%$5py58#@-,2552<,,:",
"#:85;$;q2;$,:;#@@<qq25tt72;;rtuqtw2,2qptq4<2587asy1:O+e7q33,:;:&",
"$&;1::5p72%,15;%#6tu95p721#$turq52,17tu88,,qppepsa2#O#spe3<*%&%$",
"@$$&,25e8;@<88:;>ptwq8tu2>#@8tq5,,;,,<525,&5aq<5asp7&,auytt5-#O+",
"+$&&:,242;$qq5&,uaapt52qq5;#>072:&&;--232;&8u7&8saq1;qayt78421@+",
",$&$::,1<&;78&#2ptqu51;,22-@$4q,&&&&##&<,,,582;7put8&1sau72,,;&&",
"t,;+@#;;;-;5,+&upq882,&-;;@O@45:%$@+XX+;1;,2,;;25q2,;7sat81;;$;,",
"8<$##;,,;%#&@+1q5*;,,&@@%@X+,r5<:&#+oO;1,;;,,;&-&877>552124,:@;,"
};
