/* XPM */
static char *_5d2ee5cb3484a07a401108cbb981713WFJaswY6ELKeOJAH[] = {
/* columns rows colors chars-per-pixel */
"64 78 236 2 ",
"   c None",
".  c #120B05",
"X  c #381B07",
"o  c #281A07",
"O  c #382108",
"+  c #3B2918",
"@  c #2E2517",
"#  c #3C342D",
"$  c #3D352B",
"%  c #3E3A36",
"&  c #462B0A",
"*  c #462809",
"=  c #592909",
"-  c #4D320C",
";  c #52350A",
":  c #5C3C0A",
">  c #583608",
",  c #452D17",
"<  c #542D12",
"1  c #4A361B",
"2  c #583714",
"3  c #642E0B",
"4  c #602A07",
"5  c #65330D",
"6  c #6B340C",
"7  c #663909",
"8  c #723A0D",
"9  c #763A0D",
"0  c #6C3A13",
"q  c #663916",
"w  c #733C13",
"e  c #793E11",
"r  c #773F18",
"t  c #483827",
"y  c #513C26",
"u  c #413931",
"i  c #473E36",
"p  c #673C21",
"a  c #5D410C",
"s  c #5D4318",
"d  c #63440D",
"f  c #6B440C",
"g  c #6C480A",
"h  c #744B0B",
"j  c #77470A",
"k  c #7B510C",
"l  c #78530E",
"z  c #634513",
"x  c #6C4915",
"c  c #754115",
"v  c #7B4314",
"b  c #7B451B",
"n  c #7B491C",
"m  c #744A18",
"M  c #745313",
"N  c #7A5413",
"B  c #7B5818",
"V  c #594829",
"C  c #584837",
"Z  c #504736",
"A  c #664A26",
"S  c #774B22",
"D  c #67562D",
"F  c #775929",
"G  c #674C37",
"H  c #685438",
"J  c #755B35",
"K  c #7C6539",
"L  c #6E603D",
"P  c #4B4845",
"I  c #534B44",
"U  c #564E48",
"Y  c #5A5249",
"T  c #5B5957",
"R  c #675849",
"E  c #635C53",
"W  c #675D57",
"Q  c #745C47",
"!  c #796548",
"~  c #66605C",
"^  c #6A635A",
"/  c #6C6155",
"(  c #77685A",
")  c #6D6B6A",
"_  c #6B6765",
"`  c #726E6B",
"'  c #726B62",
"]  c #7A736C",
"[  c #74706D",
"{  c #797675",
"}  c #874D09",
"|  c #88580C",
" . c #975B0D",
".. c #814614",
"X. c #834B1C",
"o. c #894E19",
"O. c #864A16",
"+. c #845B13",
"@. c #875517",
"#. c #965D12",
"$. c #A15F10",
"%. c #9C640C",
"&. c #95650F",
"*. c #8A6316",
"=. c #9A6617",
"-. c #9B721A",
";. c #A5640C",
":. c #A9660C",
">. c #A96A0C",
",. c #BC7B0D",
"<. c #B77509",
"1. c #A46C13",
"2. c #AC6B13",
"3. c #A56917",
"4. c #B16F14",
"5. c #AB7516",
"6. c #B47313",
"7. c #B57C13",
"8. c #BB7B12",
"9. c #B3751A",
"0. c #BB7B1B",
"q. c #B67A19",
"w. c #B26F0A",
"e. c #824D21",
"r. c #8C5523",
"t. c #865823",
"y. c #935925",
"u. c #845B33",
"i. c #896528",
"p. c #966629",
"a. c #866A38",
"s. c #936D33",
"d. c #AC7924",
"f. c #B87D23",
"g. c #A56C2B",
"h. c #C37D0B",
"j. c #C47C07",
"k. c #C27F15",
"l. c #8F704A",
"z. c #A17E51",
"x. c #85796E",
"c. c #BB8419",
"v. c #B98728",
"b. c #B78830",
"n. c #C6820E",
"m. c #CB850C",
"M. c #CE890E",
"N. c #D28C0D",
"B. c #D48A06",
"V. c #D9920D",
"C. c #C48413",
"Z. c #C88611",
"A. c #CD8C14",
"S. c #C98C1A",
"D. c #C48918",
"F. c #D28E12",
"G. c #CD931C",
"H. c #CC9019",
"J. c #D49314",
"K. c #D99513",
"L. c #DD9A14",
"P. c #D39419",
"I. c #D6991A",
"U. c #DA9C1A",
"Y. c #E19D14",
"T. c #E09F18",
"R. c #DEA11B",
"E. c #E4A41B",
"W. c #E3A017",
"Q. c #CA8D24",
"!. c #C48925",
"~. c #CB9322",
"^. c #C89727",
"/. c #D59B23",
"(. c #D49827",
"). c #C18C35",
"_. c #CD9A33",
"`. c #DBA223",
"'. c #DBA429",
"]. c #D8A537",
"[. c #CEA435",
"{. c #E1A622",
"}. c #E5AC24",
"|. c #E6AC29",
" X c #E7B632",
".X c #E4AE2E",
"XX c #F1C031",
"oX c #B79C56",
"OX c #B18B49",
"+X c #928475",
"@X c #AA946B",
"#X c #BFA36E",
"$X c #C89D49",
"%X c #DAAC47",
"&X c #CAA954",
"*X c #D4AD57",
"=X c #D5B45D",
"-X c #D5AC4C",
";X c #E3BB58",
":X c #E6B54A",
">X c #C8AB66",
",X c #CDB369",
"<X c #DBBA64",
"1X c #D7B966",
"2X c #DBBF72",
"3X c #DEC16B",
"4X c #DCC375",
"5X c #E4C978",
"6X c #E0C26A",
"7X c #898784",
"8X c #948F8B",
"9X c #B8B2A9",
"0X c #B4A48D",
"qX c #D2B483",
"wX c #DCC288",
"eX c #EAD183",
"rX c #C7C3BC",
"tX c #D7C9B5",
"yX c #EAD9B4",
"uX c #CCC9C3",
"iX c #D9D5CC",
"pX c #D9D3C9",
"aX c #DDD9D1",
"sX c #D8D6D2",
"dX c #D1CBC1",
"fX c #E1DDD5",
"gX c #E2DFD8",
"hX c #E5E2DA",
"jX c #E9E5DE",
"kX c #E5E0D7",
"lX c #F1E6C9",
"zX c #EAE7E1",
"xX c #EDEAE3",
"cX c #EFEDEA",
"vX c #F1EFE8",
"bX c #F4F2EC",
/* pixels */
"                                                                                                                                ",
"                                                                                                                                ",
"      [ E ! K ( 8X                                                                                            7X( a.! @XuX      ",
"    G =.;.5.g. .3.l.                                                                                        ! 5./.D./.=XjXl.    ",
"  ( 3.:.m Y   Y H @.l.                                                                                    +X@.J ^   R F %Xm./   ",
"  G _.m 8X        / p.0X                                                                                8X=.Q           A V.a.  ",
"  H 3.W         ] s.k.z.    { ) ) _ ) ) ) ) ` ) ) ) ) ) ) ) ` ' ` ) ) ) ) ) ` ` ' ` ) ) [ [ [ [ [ `     z.6.t.]         [ c.F   ",
"  H j           i.Q.F.H.OX  A @.o.| c | =.#.}  .1.%.7.5.1.c.5.>.7.c.&.v.@XoXoX>XoXv.c.c.>X,Xv.c.5.M   OXK.j.U.=.          *.t.  ",
"  A 7           @.I.=.J.7.+X) O 2.q - ; & & * X ; > > ; a ; - - a a a - V V C V D a ; M 0X+Xg D.z W 7Xd. Xc.'.-.{         M K   ",
"  Q x           ~ C I Q F 9.&.d } c.8.5.3.2.f.k.I.U./.V.W.J.J.M.m.J.J.`.1X5X=X&X3XJ.w.}.D.`.XXc.: 5.3.*.R U D ^           B F   ",
"  H f                     p.C.f.7 f.:.;.:.0.:.9.F.N.`.Z.H.Y.R.K.,.P.`./.=X3X3X3X&XR.M.K.F.P.K.k %.V.-.                    B i.  ",
"  G 6                     Q h.A.> 0.Q.Q.;.;.3.S.{.P.J.F.J.L.E.w.Z.C.C./.=X1X5X<X=X'.c.R.}.R.M.d H.V.K                     *.a.  ",
"  R o.T                     *.<.f } 4.3.2.!.:.:.k.n.U.S.M.M.H.I.G.P.H.^.<X5X3X5X-XE.I.R.m.J.7.*.c.-.                    [ 1.H   ",
"  ) @.A                       [ S ; 2.4.Q.0.2.6.{.A.I.{.M.H.m.n.K.Z.H.%X3X3X6X3X;XU.H.H.R.P.g B T                       Q c.T   ",
"    s } U                       ' k B b.;.#.9. .>.c.D.6.c.>.D.<.G.H.c.v.oX,X,XoXq.c.D./.H.j h R                       R ~.g     ",
"    _ @.b.'                       x.+ 7 7 z s s g g M M M M : 7 k i.9Xa.F D D D s g M h B + ]                       Y 7.c.I     ",
"      y OXtX`                       J $.4.Q.qXqXD.D.G.M.G.A.,.P.R.%XqX'.&X,X&X3Xv.j.I.P.K.x                       ~ 5.n.s       ",
"        ( qXp.R                   Y , & > F +Xl.; ; a a a z a d : : 2 d V D D D z : - a d & E                   ~ c.7.s         ",
"          Z 1.} W                 b !.2.0.(.0.0.K.U.G.M.H.Z.J.I.J.F.J.B.=X3X,X=X%XV.`.|.J.F.&.x.              / 1.c.t           ",
"            W #.=.(               R & & * 2 ; > a d : > a a : : > : : a D s V D d : : : : : C               ^ 1.5.C             ",
"              { F 3.^               u.f.9.:.6.:.D.F.K.M.'.G.R.~.A.n.M.`.3X,X5X5X^.C.I.Z.,.+.              ^ 5.+.Y               ",
"                  F 1./             t ; ; s - : g l g k h g k N g M d B F L D J m M l h M s             E  .F                   ",
"                    J 3.E           x 3.2.#.2.;.<.c.c.C.D.D.D.v.&Xv.G.c.,X&X,X,X^.,.H.c.G.-.          R &.x                     ",
"                      V 5.Q         y.4. .;.:.q.R.M.j.J.m.V.U.;XlX'.R.Z.eX4X3X3X).F.K.F.L.1.        Y %.V                       ",
"                        V q.R       l.9.Q.0.$.2.h.j.Y.K.K.m.U.U.%XG.C.R.:X5X5X6X:XA.S.j.m.*.      R %.V                         ",
"                          J ~.R     l.:.k.!.$.3.F.k.T.V.Y.n.m.6.m.I.I.F.].&X4X1X].T.U.`.J.@.    ^ !.z                           ",
"                            i.q.'   u.9.4.9.9.:.J.K.P.M.E.F.Y.m.A.}.A.j.!.4X>X$X].}.|.R.R.+.  7XpXz.                            ",
"                              =.t.x.S 9.f.$.$.6.Q. X|.T.B.J.:.Z.P.c.N.m.(.,XeX1X[.F. XL.`.M 8Xz.#X(                             ",
"                              R &X9Xq D.3.4.k.2.K.P.F.U.N.U.Y.N.C.m.P.`.D.$X*X5X;XB.j.m.J.d s G.V                               ",
"                                z.#X* f.f.f.$.2.4.U./.P.`.U.Y.Z.E.F.E.m.~.6X5XeX%XY.N.}.m.d ^.+.                                ",
"                                J k.X !.g.:.f.$.:.m.F.J.Y.J.m.|.L.J.V.J.^.<X,X5X(.G.R.R.E.a c.x                                 ",
"                                W 6.- 4.0.4.).$X,.F.U.F.F.m..X-Xn.U.m.m./.3X1X$X].<.H.G.F.& ,.E                                 ",
"                                T O o 2.f.).yXqX:.j.C.S.F.P.5XlX(.I.U.H.'.2X5X<X~.T.m.'.M.O - P                                 ",
"                                  ) . @.4.3.g.f.Q.K.L.S.Z.Y.Z.%X}.N.J.N.].1X$X1X~.A.M.k.>.. T                                   ",
"                                    P m 3.2.4.4.0.U.F.,.F.}.N.S.h.W.|.J.'.6X5X4XR.E.H.w.l Z                                     ",
"                                      t 2.9.0.;.4.M.L.C.L.C.m.<.M.U.H.F..X5X6X&X.XS.A.F.s                                       ",
"                                      T @.6.6.:.Q.(.k.T.M.A.G.H.T.|./..X*X1X1X-XF.M.E.5.#                                       ",
"                                        1 3.:.:.$.$.h.I.U.R.E.U..XU.(.yXwX5X1X%XU.n.K.;                                         ",
"                                        T 9 2.3.6. .S.P.I.V.J.P.M.Z._.-X*X3X=X`.R.R.&.Z                                         ",
"                                          u  .3._.0.C./.h.N.E.A.J.J.V.].&X5X-X[.J.H.u                                           ",
"                                            $ O.!.2.Q.F.j.m.I.6.J.}.S.).1X=X%XC.c.+                                             ",
"                                              $ 7 #.9.S.V.Z.S.J.W.F.J.;X=X&XR.*.@                                               ",
"                                                P + k 3.h.J.A.8.J.N.'.=X=Xb.1 %                                                 ",
"                                                    P t - +.%.5.5.5.i.A t %                                                     ",
"                                                        C N g +.-.+.| V                                                         ",
"                                                          v ;.C.n.R.c.`                                                         ",
"                                                        T * x B g g : P                                                         ",
"                                                      R =. .3.D.G.^.OXv.A                                                       ",
"                                                      R - 7 x h 7 B K B Z                                                       ",
"                                                      8X< N l +.k *.*.s +X                                                      ",
"                                                      G } &.v.>.5.^.oXc.J                                                       ",
"                                                      I O - a & - a s a t                                                       ",
"                                                      R v N *.&.| -.k -.C                                                       ",
"                                                    x.=.1.6.5.^.c.G.&Xv.!.!                                                     ",
"                                                ] [ Z 5 = g | k k +.K B | y ' '                                                 ",
"                                              W v @.t.B k +.| &.| | l | | j &.O.R                                               ",
"                                          J #.=.#.p.pXb.c.D.,.H.A.D.7.&X[.`.c.c.S.7.i.                                          ",
"                                        { p 7 > d a.@Xl *.*.| +.*.&.&.s.F B k k N l m ]                                         ",
"                                      _ i v h x : B s.*.*.+.&.-.k k } &.s.i.h k c h @.t )                                       ",
"                                ~ O < < X 2 = n 2 q X < q ; S 0 : x > 2 & * ; = 2 l.J q 2 < q U                                 ",
"                                ~ S ..w b r 0 o.O...X.r.3 e 3 6 c r.c 6 j 5 y.S l.dXl.9 5 e.3 I                                 ",
"                                ~ 6 q 0 e e p.y.n ..b ..r ..y.o.X.= w r.@.o.6 8 S S e.O.r e X.I                                 ",
"                                W q 9 g.w 3 o.y.6 6 3 6 e ....S n ..6 6 o.6 o.r = 6 5 e.e v c I                                 ",
"                                W 0 r.y.y.y.X.y , y , t y 1 y , y y , + t t , , , y.r.X.r c c P                                 ",
"                                ~ b r.X...e.r.W gXfXpXgXiXpXgXgXiXfXgXaXjXcXpXgX] q w 6 n 3 0 P                                 ",
"                                ~ = w w y.u.p W zXzXjXbXfXdXfXsXiXfXkXbXhXzXhXzXx.r.X.b 6 v o.I                                 ",
"                                ~ e 0 v e.tX+X^ xXgXjXgXvXxXsXgXxXiXfXxXhXzXxXpXW 0 v 8 v c w U                                 ",
"                                ~ w 8 6 p.z.u.^ gXfXfXxXjXgXgXxXhXfXsXbXjXzXzXfX^ 0 w 4 5 0 q Y                                 ",
"                                ~ 5 X.4 v n X.W xXpXpXfXbXjXaXjXgXzXbXpXaXhXzXcX] 8 = o.0 q o.U                                 ",
"                                Y = X.6 ..w O.E iXiXxXbXjXgXkXvXhXxXfXfXgXgXbXsX` q b 8 O.e.e U                                 ",
"                                Y 6 r ..O...6 E pXfXpXfXhXxXjXjXxXzXcXbXxXjXzXcX] w 5 r.b r.y.E                                 ",
"                                T S r e o.b 6 E rXrXdXrXrXdXdXdXsXuXuX9XuXdXrXuXY c 6 X.r.X.r.E                                 ",
"                                W 0 X.v v 8 o.O * X 2 X , 1 & * X X X , , * X * < b y.e.6 e O.W                                 ",
"                                ' b c p.v 6 = 0 r.w e.v v ..3 e X.5 G tXu.3 n r X.w X.r.X.r.O.I                                 ",
"                                x.6 6 X.X.9 p.b 6 c y.e.3 r.w 3 ....l.@Xy.6 e ..y.X.e.y.6 0 r.y                                 ",
"                                ' 3 b = v S r.w 3 c S n r 5 b b r b r w 6 X.w 6 m v r.e w 8 e.C                                 ",
"                                x.U u u # # % # u # u u # u u # u # # # # # # # # # $ # u Z W `                                 ",
"                                                                                                                                "
};
