/* XPM */
static char *_0a823b5d84f406be3619d9576e03ff8LEAdFpv9OiXRG2K6[] = {
/* columns rows colors chars-per-pixel */
"64 78 248 2 ",
"   c None",
".  c #130C06",
"X  c #351A07",
"o  c #281809",
"O  c #382209",
"+  c #3B2918",
"@  c #33281A",
"#  c #3C342D",
"$  c #38332E",
"%  c #3E3933",
"&  c #3A2D23",
"*  c #4C2B0B",
"=  c #462808",
"-  c #5C2C0C",
";  c #562C09",
":  c #4E340D",
">  c #553B0D",
",  c #5A3C0B",
"<  c #563408",
"1  c #472C16",
"2  c #4A3218",
"3  c #573815",
"4  c #542F10",
"5  c #63310E",
"6  c #6B340C",
"7  c #633D0B",
"8  c #6A390C",
"9  c #753B0D",
"0  c #643512",
"q  c #6D3B14",
"w  c #683A16",
"e  c #733D13",
"r  c #763E15",
"t  c #632C08",
"y  c #483827",
"u  c #453C33",
"i  c #513B28",
"p  c #5D410D",
"a  c #5D4315",
"s  c #64420C",
"d  c #6B430C",
"f  c #6D4A0C",
"g  c #674409",
"h  c #7B4B0B",
"j  c #734A0A",
"k  c #7B520D",
"l  c #6B4B13",
"z  c #674617",
"x  c #744216",
"c  c #7B4315",
"v  c #75431A",
"b  c #7B451A",
"n  c #7D491C",
"m  c #754C15",
"M  c #735414",
"N  c #7A5619",
"B  c #6B5219",
"V  c #594928",
"C  c #594939",
"Z  c #51483A",
"A  c #674B2A",
"S  c #7C4C22",
"D  c #744A25",
"F  c #765828",
"G  c #674C35",
"H  c #685436",
"J  c #775937",
"K  c #6C552D",
"L  c #766239",
"P  c #726237",
"I  c #4B4846",
"U  c #514C46",
"Y  c #554B45",
"T  c #5B5248",
"R  c #5B5956",
"E  c #645A4D",
"W  c #675749",
"Q  c #645D56",
"!  c #6B5948",
"~  c #796746",
"^  c #65605C",
"/  c #6C635B",
"(  c #6C6358",
")  c #776758",
"_  c #6E604D",
"`  c #6D6B6A",
"'  c #696663",
"]  c #746D65",
"[  c #78736D",
"{  c #797774",
"}  c #87570C",
"|  c #98590B",
" . c #834C1B",
".. c #854B1A",
"X. c #8B511C",
"o. c #875916",
"O. c #9C5D11",
"+. c #935B13",
"@. c #824C0B",
"#. c #A15D09",
"$. c #94610D",
"%. c #8A6319",
"&. c #9C6414",
"*. c #976818",
"=. c #9E711B",
"-. c #8E600E",
";. c #A3620C",
":. c #A7680B",
">. c #B36E09",
",. c #BB7B0E",
"<. c #B7730B",
"1. c #A36414",
"2. c #AC6B13",
"3. c #A66A17",
"4. c #B16E14",
"5. c #AA7417",
"6. c #B47315",
"7. c #B57C15",
"8. c #BB7A13",
"9. c #BB7C1C",
"0. c #B4761B",
"q. c #AC710E",
"w. c #824E22",
"e. c #855123",
"r. c #8A5927",
"t. c #945C26",
"y. c #865B31",
"u. c #866529",
"i. c #996926",
"p. c #846735",
"a. c #976836",
"s. c #977626",
"d. c #A36C26",
"f. c #AA7626",
"g. c #B87D22",
"h. c #A37939",
"j. c #A56D34",
"k. c #C27C0B",
"l. c #C47C07",
"z. c #C07E11",
"x. c #887558",
"c. c #8F724D",
"v. c #A17C4C",
"b. c #8B7968",
"n. c #8B7E71",
"m. c #BD8214",
"M. c #BB831B",
"N. c #B5821B",
"B. c #B98114",
"V. c #B88629",
"C. c #BD9024",
"Z. c #B78838",
"A. c #B88F30",
"S. c #C5810D",
"D. c #CB840C",
"F. c #CE890E",
"G. c #D38C0C",
"H. c #D9920D",
"J. c #C48414",
"K. c #C98612",
"L. c #CC8B14",
"P. c #C3831A",
"I. c #C58B1B",
"U. c #CB8D1B",
"Y. c #C68915",
"T. c #D18E12",
"R. c #CE931B",
"E. c #D49214",
"W. c #DB9915",
"Q. c #D3951B",
"!. c #D5991D",
"~. c #DB9C1B",
"^. c #D89513",
"/. c #DEA21E",
"(. c #E3A41B",
"). c #E5A51A",
"_. c #C48B23",
"`. c #C58723",
"'. c #CA9629",
"]. c #D59D23",
"[. c #DA9F22",
"{. c #D29A25",
"}. c #C99733",
"|. c #D39D31",
" X c #DCA323",
".X c #D7A328",
"XX c #D8A837",
"oX c #D7AE39",
"OX c #E3AB24",
"+X c #E4AD2A",
"@X c #E3A722",
"#X c #E5B334",
"$X c #E5B130",
"%X c #E19C12",
"&X c #B1914E",
"*X c #88827E",
"=X c #AE926B",
"-X c #BCA460",
";X c #C79D47",
":X c #CBA348",
">X c #CAA957",
",X c #D0AE59",
"<X c #D7B55C",
"1X c #D9AB4A",
"2X c #E4BB57",
"3X c #C5AA64",
"4X c #D3B463",
"5X c #D8BA66",
"6X c #D9BD76",
"7X c #CEB476",
"8X c #E2BE6B",
"9X c #DEC273",
"0X c #E4C977",
"qX c #E6C770",
"wX c #EBC05A",
"eX c #8A8784",
"rX c #918E8A",
"tX c #A99C8C",
"yX c #BCA990",
"uX c #B7B3AD",
"iX c #CABBA7",
"pX c #DBBE89",
"aX c #E4CA86",
"sX c #E7D390",
"dX c #C9C4BA",
"fX c #D7C6A8",
"gX c #E7D3A5",
"hX c #EADAB0",
"jX c #DECA96",
"kX c #CCCAC5",
"lX c #D2CDC4",
"zX c #D1CFCB",
"xX c #DAD5CC",
"cX c #D6D2CA",
"vX c #DCD9D3",
"bX c #DAD7D0",
"nX c #E1DDD5",
"mX c #E2DFD9",
"MX c #E4DBCE",
"NX c #E5E2DB",
"BX c #E9E5DD",
"VX c #EBE4D6",
"CX c #F4ECD8",
"ZX c #EEEBE5",
"AX c #EAE8E3",
"SX c #F1EEE8",
"DX c #F8F4EA",
"FX c #FAFAF9",
/* pixels */
"                                                                                                                                ",
"                                                                                                                                ",
"      [ ( J H ) rX                                                                                            n.b.~ c.) {       ",
"    ! *.g.;.0.5.&.)                                                                                         ) 5.'.C.].J.M.x.    ",
"  / &.1.F T   U H *.x.                                                                                    *Xs.H ^   E N L.'.!   ",
"  J 0.w rX        ( j.tX                                                                                tXV.)           B {.J   ",
"  ~ g.Q         [ p.P.v.    [ ` ] ` ` ` ` ` ` ` ` ` ` ` ` ` ` ` ` ` ` ` ` ` ` ` ` ` ` ` ` ` ` ` ` `     =XgXvXtX        [ 7.F   ",
"  J x           r.].OX|.v.  A *.r.*.+.*.&.o.} o.&.5.N.7.7.&.N.C.5.7.5.s.&X-X&X-XZ.=.h N.N.7.=.N.5.z   v.XXgXhXh.          x F   ",
"  G d           k ~.q.B.q.rX] z `., * O > : = 1 > < > s , , p > > < : > V V V T V p p p > : l '.M Q eX+.N.a.2X=.{         m p.  ",
"  K z           ^ H U ! F f.Z.x.X.9.2.2.1.g.6.0.#.D.D.G.L.+X!.S.E.W.W.}.4X7X9XpX9Xq./.m.^.E.^.'.s | &.u.~ U C ]           B p.  ",
"  H <                     h.gXNXy.:.1.2.'.9.#.2.F.G.%X<.D.~.~.OX^.U.W.XX4X=XCXVX4X$XQ./.'..XR.-.=.E.*.                    u.u.  ",
"  G  .                    b.aXaXm `.#.| +.1.0.`.Q.@XK.D.@XL. XS.R.J.,.XX0X9XhXjX5X/. X%Xm.D.F.g $X~.L                     s.p.  ",
"  Q @.Q                     p.}.m h 2.#.z.9.`.>.U.~.E.D.,.G.,.m.$XOX).}.0X>X9X9X<XY.m.Y..XF.m.f 5.%.                    ` q.H   ",
"  ` } A                       [ z : :.| g.3.0.1.U.L.~.k.!.E.l.F.OX$X/.XX4X5X,X4X<X.X!.R. X X< s R                       G 5.R   ",
"    3 3.T                       ] x N 1.O.4.&.V.7.>.P.m.m.,.,.Y.F.I..X}.-X3X3X3X'.A.C.Y.:.} N E                       C 7.M     ",
"    ' @.&.E                       n.& < s z < < j s l f g f f M M M s s P K ~ L P j l f , O [                       E C.C.U     ",
"      y } d.W                       A `.0.1.| 6.~.M._.+XL.Y. X/.D.B.R.C.,X3X9X9XoX XM.U.<.7                       Q $.J.y       ",
"        i g.r.E                   T : * 3 * > * < : p p > B > = < p l l V H V V K p p g , , _                   R +.q.2         ",
"          y h i./                 t.8.6.O.'.6.O.J.E. X/.J./././.OX!.H./.5X>X,X,X'./.T.8.H.Y.&.*X              Q &.&.y           ",
"            E m +.'               T X , 3 3 = > p < p p l p B > p p p p V V H V s p p p < < u               rXs.&.H             ",
"              { o.5.Q               J | | g.`.2.,.>.!.~.F.U.].Q.B.E.m.^.&X0X4X4X_.U.Q. X XM             FXzXfXv.T               ",
"                  L 5.)             1 ; > > < 7 g g g j k f s s j k M M P P P ~ N f M N f 2             ( dXcX                  ",
"                    _ 7XSXFX        - Z.1.:.o.2.M.B.7.J.q.5.6.8.B.S.C.N.-X>X>X-XoXN.M.B.N.+.          E s.c.vX                  ",
"                      eXVXn.        y.g.g.4.1.f.!.). X^.(.].z.l.W.B.T./.9XsX9XjX}.G.F.^.,.+.        T -.V                       ",
"                        ] Z.C       F | 4.O.g.3.k.H.Q.[.~.D.H.OX+X.XE.#X:XsXCXDX:XT.T.P.F.*.      T d.V                         ",
"                          H 1.!     c.}.2.| 2.9.[.).@Xz.{.Q.W.k.OX]./.S.1X9XhXgX|.W.W.!.R.o.    ! 7.B                           ",
"                            o.:./   J | 4.d.0.9.z.Q.+X^.G.Q.@X{..XT.T.Q.oX9XhXaX:XF. X~. Xh   ] 5.l                             ",
"                              =.i.{ D ;.6.6.4.O.z.Q.[.T.>.G.Y.U.W.W././.V.aX5X9X}.>.G.W.K.z rXo.+.Q                             ",
"                              W 9.w O >.f.| O.2.{.z.~.!.@XT.].!./..XI.'.oX,X9X>X:X%XT.k.!.l > m.V                               ",
"                                r.'.3 0.| 4.9.9.9.E.+X[.^.z.~.L.l.Y.)./.W.:X9X9X#XS.L.G.W.M m.$.                                ",
"                                F L.= d.g.;.0.2.[.Q.E.[./.>.k.E.D.W.)./.'.:X,X9X1XW.S.K.K.> L.3                                 ",
"                                Q K.O | } 1.2.0.`.[.[.Q.@XJ.~.^.F. XoX X X<X4X>X#X{.T.W.<.: J.Q                                 ",
"                                R X o &.<.2.#.#.#.L.D.). X@X]._.T.q. X~.].9X4XaX_.Q.P.K.J.o : I                                 ",
"                                  ` . c 9.1.2.#.9.D.H.].~.Y..X.XI.E.R..X.X4X>X>X'.R.~./.q.. R                                   ",
"                                    I p.g.2.6.4.2.L.G.K..XL.+X(. X X/.^.#X5X<X<X'.D.+XH.g u                                     ",
"                                      i f.z.O.1.2.R.<.k./.].^.].Y.8.Y.F.#X4X5X9X^.<.E.L.>                                       ",
"                                      R o.:.1.1.V.9.L.Q.k. XOX^.T.+X XL.'.4X,X<X XQ.[.&.#                                       ",
"                                        1 #.4.:.4.<.Q.J.^.~.!.8.E./.$XL.1X,X,X:X1XgX8Xz                                         ",
"                                        R b 6.k.}.3.k.8.Y.L.G.+XW.@XL.L.:X9X,XU.2XFX=XZ                                         ",
"                                          # } 6.d.U.`.E.W.L.).H.L.I.!.'.>X0X5XG.|.3XR                                           ",
"                                            & } 9.3.z.].T.~.T.!.L.T.U.|.<X0XoXD.q.+ uX                                          ",
"                                              u l +.O.4.[.8.L.l.,.T.G.<X5X5X[.*.@                                               ",
"                                                I @ @.6.k.~.G.G.].XX{.0X0Xs.+ u                                                 ",
"                                                    I & s M &.&XaXpXp.! u %                                                     ",
"                                                        C 8 < i.nXfXs.y                                                         ",
"                                                          o.f.|.:XqX:.]                                                         ",
"                                                        R 3 7 s 8 N l I                                                         ",
"                                                      G +.+.&.Y.I.}.-XV.K                                                       ",
"                                                      E , l s M M N B N i                                                       ",
"                                                      rX1 m 7 o.k u.-.p eX                                                      ",
"                                                      c.&.V.Z.&.N.C.&X:.K                                                       ",
"                                                      I H uXfXL p p a * y                                                       ",
"                                                      T w dXyX%.*.k -.-.G                                                       ",
"                                                    b.d.3.Z.;X7.5.N.>XA.4.~                                                     ",
"                                                [ ] u z q f F %.%.N L F k Z ] '                                                 ",
"                                              Q m N c N %.} k @.%.u.s.k } h *.o.W                                               ",
"                                          ~ Z.3.&.| f.7.m.2.8.k.q.R.6.&X'.7.N.$.V._.r.                                          ",
"                                        n.w s s f 7 f } -.} %.%.%.k %.p.%.B N N N %.a {                                         ",
"                                      ' u F 5 7 M d @.j } %.} +.-.} } k %.%.*.f f } N i `                                       ",
"                                ^ * 2 v w 4 3 ; w 4 < w * = - q * d < * K *Xb.> * 3 * 0 3 w - U                                 ",
"                                ' c v 0 X...S ..x n 5  .b w.e w.w.r 6 r p.SXyXy.v - X.t.e.q r U                                 ",
"                                Q w e q b X.6 q v n q q X.r t r w X.6 v.c.=Xv...6 t.c e.b q  .U                                 ",
"                                Q q t.t.q 6 9 0 6 w X.c c e r q r X.e.e.y.r y...q c 6 9 r v ..U                                 ",
"                                Q n ..r e 6  .+ 2 & + + y y & y X + + y 1 1 @ i 1 b X.t.e r * U                                 ",
"                                Q ; - X. .6 e E nXNXNXlXlXbXZXAXvXbXnXzXnXnXBXvX{ v x v v t.q Y                                 ",
"                                ' D c ..t ..q Q xXlXNXNXbXBXvXSXNXZXSXnXnXnXBXcX{ c ..c 5 9 6 U                                 ",
"                                ^ 5 6 n t 9 t Q NXNXBXSXBXcXNXZXSXVXAXnXBXnXcXcX[ 0 ..c S ..q Y                                 ",
"                                ' v 9 e ..0 ../ ZXBXvXbXdXvXnXZXBXbXZXNXNXdXxXBX[ 5 D r.d...w.T                                 ",
"                                Q v r t 0 5 v Q nXbXlXbXbXSXlXBXNXNXBXNXNXvXdXnX] S n r  .S 6 T                                 ",
"                                T n t.t.w.r  .Q BXBXnXcXnXSXBXSXNXnXNXnXnXBXBXBX] 5 b t.e. .- I                                 ",
"                                E q c q - q ../ DXBXnXvXxXNXlXBXNXlXAXmXlXBXcXcX] z r.S D w.w R                                 ",
"                                Q r S q 9 q - Q zXkXkXkXcXdXuXdXkXlXkXzXkXkXuXuX/ n q y.v.j.r Q                                 ",
"                                ( w.5 t.e 9 9 * X 3 O : = 4 + = X X 1 O * o X X 4 w.t.tXAX=Xr W                                 ",
"                                Q q b w.b X...q X.b ..q G c.=XD e...q n e.t...c t.- S yXiXS e.Y                                 ",
"                                ] c 8 8 D X.X.n w  .e.c v MXbXw.e 6 e b S ..e 6 X.0 r S j.y.r i                                 ",
"                                x.r c b  .e b ; e.8 0 b a.yX=X0 e.e q 6 5 w.X.X.- b t X.q w.w y                                 ",
"                                { T u u u # # # u # $ $ # I R I # # # # $ # # u # $ # u u % I [                                 ",
"                                                                                                                                "
};
