/* XPM */
static char *c2f49c5aa5f4444deae71d868e6253b2rPk6SYf1bT0k1h6p[] = {
/* columns rows colors chars-per-pixel */
"64 78 241 2 ",
"   c None",
".  c #120B04",
"X  c #371C06",
"o  c #281403",
"O  c #3C2309",
"+  c #3B2818",
"@  c #2E251A",
"#  c #3B342D",
"$  c #3F3629",
"%  c #3E3A34",
"&  c #3B2E22",
"*  c #491D07",
"=  c #462708",
"-  c #562908",
";  c #4E330C",
":  c #53340A",
">  c #5C3C0A",
",  c #593609",
"<  c #462D17",
"1  c #4A331A",
"2  c #593815",
"3  c #582C12",
"4  c #632D09",
"5  c #652D06",
"6  c #6C340C",
"7  c #64390A",
"8  c #743A0E",
"9  c #773C0E",
"0  c #6C3A13",
"q  c #683713",
"w  c #733C12",
"e  c #793E11",
"r  c #46392A",
"t  c #433B33",
"y  c #513B25",
"u  c #5D4515",
"i  c #5D420D",
"p  c #65430C",
"a  c #6B440C",
"s  c #6D490C",
"d  c #6C4406",
"f  c #744C0B",
"g  c #7C4B0B",
"h  c #76450A",
"j  c #79530D",
"k  c #694816",
"l  c #744115",
"z  c #7B4213",
"x  c #784818",
"c  c #775515",
"v  c #59492A",
"b  c #584837",
"n  c #4A4238",
"m  c #644A26",
"M  c #784A24",
"N  c #6A542A",
"B  c #755528",
"V  c #634B35",
"C  c #695538",
"Z  c #785835",
"A  c #786438",
"S  c #7E6229",
"D  c #7E6019",
"F  c #4B4745",
"G  c #534B46",
"H  c #584D46",
"J  c #5C5249",
"K  c #5C5956",
"L  c #635245",
"P  c #65584B",
"I  c #695D54",
"U  c #635D56",
"Y  c #796547",
"T  c #6C635C",
"R  c #68625A",
"E  c #726759",
"W  c #6F604C",
"Q  c #6D6B6A",
"!  c #6A6663",
"~  c #726B64",
"^  c #736D69",
"/  c #7B746B",
"(  c #797672",
")  c #854B0A",
"_  c #83560C",
"`  c #88590C",
"'  c #98590A",
"]  c #814614",
"[  c #834A1B",
"{  c #854B17",
"}  c #8C511D",
"|  c #875917",
" . c #945916",
".. c #A15E0B",
"X. c #96620D",
"o. c #8C6417",
"O. c #996716",
"+. c #9E721B",
"@. c #A4640D",
"#. c #AD6C0D",
"$. c #A7680B",
"%. c #B26D0C",
"&. c #B9770B",
"*. c #AC6B11",
"=. c #A56A16",
"-. c #AA7413",
";. c #AC721A",
":. c #A47319",
">. c #B57314",
",. c #BB7C13",
"<. c #B2731B",
"1. c #BB7B1B",
"2. c #B67916",
"3. c #AF7010",
"4. c #8A5424",
"5. c #935B27",
"6. c #855B34",
"7. c #804C20",
"8. c #866528",
"9. c #966724",
"0. c #896439",
"q. c #976A39",
"w. c #96722F",
"e. c #A97624",
"r. c #B67A23",
"t. c #A87435",
"y. c #C47D0B",
"u. c #C57C07",
"i. c #C17E14",
"p. c #966D46",
"a. c #8B7349",
"s. c #9A734A",
"d. c #87745B",
"f. c #9B7754",
"g. c #836C54",
"h. c #83776A",
"j. c #817C7A",
"k. c #BC8113",
"l. c #B9841B",
"z. c #BF810F",
"x. c #BC8825",
"c. c #B48E37",
"v. c #C6820C",
"b. c #CA840C",
"n. c #CE880C",
"m. c #D38C0D",
"M. c #D18706",
"N. c #DA930D",
"B. c #D6900F",
"V. c #C48412",
"C. c #CA8611",
"Z. c #CD8C14",
"A. c #C6881A",
"S. c #D18E12",
"D. c #D18F1A",
"F. c #CC931B",
"G. c #D49214",
"H. c #DA9513",
"J. c #DC9914",
"K. c #D2941B",
"L. c #D6991B",
"P. c #DB9C1A",
"I. c #E19E17",
"U. c #E1990F",
"Y. c #DEA11C",
"T. c #E2A31B",
"R. c #EAA81A",
"E. c #C58A23",
"W. c #CD9426",
"Q. c #D69B25",
"!. c #C89637",
"~. c #D39D37",
"^. c #C98F33",
"/. c #DCA428",
"(. c #DCAA38",
"). c #E4AB24",
"_. c #E4AA24",
"`. c #E8B02C",
"'. c #B2914F",
"]. c #BDA057",
"[. c #948674",
"{. c #AE9272",
"}. c #BDA274",
"|. c #C7984A",
" X c #C09950",
".X c #C9A349",
"XX c #D9A845",
"oX c #C9A856",
"OX c #D3AB58",
"+X c #D3B25B",
"@X c #D9B559",
"#X c #DBB14B",
"$X c #E9BC57",
"%X c #D4B463",
"&X c #DBBB64",
"*X c #DABB69",
"=X c #CFB070",
"-X c #E0B962",
";X c #ECC259",
":X c #DDC06D",
">X c #DFC471",
",X c #E3C46C",
"<X c #E6CA76",
"1X c #F0D67F",
"2X c #878584",
"3X c #999389",
"4X c #95928F",
"5X c #A59988",
"6X c #B59C84",
"7X c #B5A594",
"8X c #B1AFAE",
"9X c #D1B88D",
"0X c #C9BBAE",
"qX c #E5C985",
"wX c #E8D097",
"eX c #D7CAB8",
"rX c #CAC5B9",
"tX c #EBD7AD",
"yX c #DDC597",
"uX c #CCC9C4",
"iX c #D1CEC7",
"pX c #DAD5CB",
"aX c #D8D3CB",
"sX c #DDDAD3",
"dX c #D8D7D3",
"fX c #E2DED5",
"gX c #E2DFD9",
"hX c #E9DDC5",
"jX c #F4E9CB",
"kX c #E6E3DB",
"lX c #E9E6DE",
"zX c #E7E2D8",
"xX c #F5EDDB",
"cX c #F4EAD0",
"vX c #ECE9E2",
"bX c #EAE8E3",
"nX c #F1EEE6",
"mX c #F1EEE9",
"MX c #F4F1EA",
"NX c #FFFEFE",
"BX c #F8F6F3",
/* pixels */
"    NX  NX                                                                                                                      ",
"    NXNXNX                                                                                                                      ",
"    NXNX7XL v / 2X                                                                                            [.h.S g.E (       ",
"  mX4XtX=Xx.=.#.;.g.                                                                                        E :.L.v.v.L.E.a.    ",
"  h.e.q.B b   H v  .g.                                                                                    [.e.N R   P k n.V.W   ",
"  Y e.M 8X        E t.5X          NX    NX                                                              5X<.W           S V.0.  ",
"  Y <.Q         / 6.u.'.    ( Q Q 8X8XdX2XQ Q Q Q Q Q Q Q Q Q Q ^ ^ Q Q Q Q ^ ^ Q Q Q Q Q Q Q Q ^ Q     p.,.w.h.        ( 2.S   ",
"  C h           9.).b.i.s.  m z { t.bXeXw._ ' h O.@.-.&.x.-.-.-.-.:.o.c.'.'.].].'.-.:.l.l.-.$.l.:.k   f.G.P.u.O.          c 8.  ",
"  V a           o.L.:.#.=.[.Q = ;.9XdXdXE 3 3 : ; > : 7 Y m k a.i : i u v v v v u i u i i , d /.c U 2X<.v.:.C.+.(         s B   ",
"  C p           ! v F Y S ;.:.f '.;. XOX1.*.@...b.v.b.H.D.wXwX~.S.n.P.x.:X<X+X&X:Xk.J.Z.F.Z./.$.a -.-.8.C G v R           M B   ",
"  V a                     | L.2.l #...t.<.r.*.>.&.J.b.m.C.jXxX$XG.S.Y.F.>X:X@X:X].Z.J.F.&.G.B.` -._.=.                    c S   ",
"  C g                     g.H.B.p r.E.^.D.....@.u.v.H.W.<XtXjX=XQ.H.K.`.&X+X%X<X#XB.N.M.V.b.b.c J.Y.C                     o.0.  ",
"  I ) K                     8.k._  .O.r.3.' 3.' b.m.n.Q.G.`.;XH._.L.R.W.%X+X>X+X(.F.P.H.u.&.#.f k._                     ( ' b   ",
"  ^ ) y                       ( c , E.E.;.<.@.>.S.T.J.y.Y.R.W.L.H.b.H.(.>X:X%X<X;XY.#XL.Y.W.a c K                       d.2.K   ",
"    <  .L                       ~ | h O.e.) r.' k.&.W.%.l.k.A.S.A.V.L.x.%X:X].].x.z.&X#X9X9.j P                     BX( <Xs     ",
"    U g @.P                       h.& , 7 f i : s s j f s d p > s d p c N A Y A c i S sXeXv /                       iXlX|.R     ",
"      r ;.;.I                       B r.r.r.@.>.S.H.Z.F.v.&.G.v.z.Y.F.).].+X%X:X(./.qXxXcXa.                      4XiXBX3X      ",
"        y O.{ P                   J ; : : = = : s > > s , > i i i i i i N v C C u q.B a.d.k W                   / '.!.[.        ",
"          r ) X.I                 [ @.O.' *.*.@.N.&.v.N.Y.m.T.G.N.R.n.L.#X].:X>XW.F.J.L.(./.:.2X              I X.-.v uX        ",
"            P | :.T               L = O : - = : , : > i p : p > i i i i N v v N , i i p N i b               E O.$.b             ",
"              j.| $.R               Z >.2.=.1.A.G.L.).Y.Y.G.&.G.m.n.B.n..X%X%X:X/.&.Y.F.b.k               T X.| P               ",
"                  Z 2.W             < , - k : p c f f j s d j f d j s d N A A N c s f k f ;             W :.8.                  ",
"                    Z X.I           [ ' *.9.:.r.k.F.-.&.&.k.,.v.#.l.F.k.'.].].%XF.l.k.F.Z.+.          I ` N                     ",
"                      v r.P         5.$.>.'.=.^.XXM.v.n.G.v.K.C.C.z.J.J.#XoX:X:XE.L.Y.n.I.O.        J O.v                       ",
"                        C l.C       Z $.@.|.=XtXD.H.u.I.N.n.b.Z.z.Y.N.).XX@XoX:X(.Z.C.P.C.o.      H &.V                         ",
"                          N <.L     6.i.>.<.nXxXXXR.H.I.n.K.I.b.Z.V.N.Y.!.+X>X1XXXH.m.y.,.|     C F.c                           ",
"                            9.#.T   6...t.qXtXhXOXi.U.U.y.P.H.m.H.b.B.v.Q.oX+X@X^.m.H.M.%.g   ~ O.o.                            ",
"                              :.+.( 6...<.>.<. XB.D.D.H.u.u.H.n.Z.G.Y.B./.:X:X<XXXP.S.H.J.j 4X| :.U                             ",
"                              L V.k = 3...' 1.^.D.`.I.m.U.G.m.J.K.B.Z.,./.,X+XoX&XJ./.Q.G.f ; /.v                               ",
"                                9.y.2 >.' %.1.<.i.S.I.Q.Q._.K.D.J.N.).v./.:X+X&XyX`.wX_.J.a k.O.                                ",
"                                B >.= ,.>...$.>.u.D.m.C.H.P.P.H.G.N.G.m.K.@X&X:X1XxXtXW.V.: -.k                                 ",
"                                I >.O ' ..%.%.i.>.C.D.D.n.P.Z.I.J.G.L.K./.:X+X<XwXMXjX~.G.; k.P                                 ",
"                                K O o =.>.=.<.i.A.u.m.v.n.H.H.H.Y.V.S.n./.+X>XqXXX$X;X/.#.X ; F                                 ",
"                                  Q . o.r.i.1.' i.S.U.v.m.n.J.B.L.H.P.m.).@X+X%XW.F.XXV.#.. K                                   ",
"                                    F 0 >.i.r.*.%.D.v.M.u.V.m.U.C.Z.K.M.A.+X>X>X/.G./.b.j n                                     ",
"                                      y *.1.1.#.' C.G.m.P.G.P.L.J.T./.P.Q.+X&X:XL.v.H.B.2                                       ",
"                                      K  .@.>.%.1.A.I.H.I.A.H.J.B.m.Y.T.#X:XoX~.F.N.G.l.%                                       ",
"                                        y ..@.>.*.i.H.S.T.T.G.C.G.G.T.M.!.,X1X~.n.Z.H.m                                         ",
"                                        K z <.<.) ..A.u.m.Z.K.L.J.T.G.J..X:XoX~.Y.B.$.n                                         ",
"                                          r  .i.%.*. X`.K.XXH.B.Z.V.T./.<X%X@X).Y.&.$                                           ",
"                                            & 9.$.A.^.qXwX^.).Z.n.G.b.Q.:X.X!.J.k.&                                             ",
"                                              t 7 r.E.jXxXXXC.L.G.J.B.!.%X,Xn._ @                                               ",
"                                                F & }.hXnX-XY.T.n.,.E.,X,X+.+ %                                                 ",
"                                                  gX! H a.w.-.z.#.+.w.N n %                                                     ",
"                                                        h.a a _ X.j ` n                                                         ",
"                                                          ) 2.L.Y.Y.k.~                                                         ",
"                                                        U 2 ; 7 s s i G                                                         ",
"                                                      V  .;.@.z.v.!.].l.m                                                       ",
"                                                      H - > s j d N S f r                                                       ",
"                                                      4X< a 7 j _ j o.f 2X                                                      ",
"                                                      Z :.X.k.X.k.:.].$.B                                                       ",
"                                                      H o i i i = k [.p 3X                                                      ",
"                                                      L z O.X.X.` +.9X9X0X                                                      ",
"                                                    ~ 5.' E.Z.k.l.k.yXBX9Xd.                                                    ",
"                                                / / t 7 a d _ ` | ].5XrX{.T ! !                                                 ",
"                                              I 6 7 g s | g _ ` o.o.c w.w.`  .` L                                               ",
"                                          0.=.X.<.;.;.l.l.&.&.x.l.z.W.oX!.z.l.k.#.2.8.                                          ",
"                                        ( m 7 0 p k : j o.o.o.9.` j | w.8.c f o.j j B h.                                        ",
"                                  8X  j.L w x k > q o.j ` ` | _ o.f o.X.8.8.o.f f ` c y !                                       ",
"                                R h.6.7X2 3 2 3 = - - 7 7 Z M 3 M q = : 0 , , ; - 3 = - * * 3 G                                 ",
"                                I 6.gX0XZ z 5 w , x [ e w 6.}.q.}.] ] } z z [ [  .q ] 4 z ] z G                                 ",
"                                ! 5XmXgXp.] 5.z 6 e 5.w 5.[ 9XiXf.7.[ 4.{ 0 0 6 [ x 4 [ l { z G                                 ",
"                                4X6.f.{.e 8 z 5.} 4.} ] } M iXNXf.5.6 e x z [ 6 { } 6 [ 8 9 8 F                                 ",
"                                T w w 0.4 4 w 3 + 1 + 1 y h.E 5X! H < + y + < 1 < 6 w } [ 8 8 G                                 ",
"                                R l e M w w k P aXdXfXnXgXpXbXbXvXmXaXkXlXkXkXkX( 0 9.w } 5.6 G                                 ",
"                                T 0 [ w w e [ E gXdXfXiXfXmXgXbXkXmXlXbXmXMXvXMX~ - f.q 0.q.4.G                                 ",
"                                ! e z [ e [ 6 T gXnXaXMXgXfXvXBXfXlXBXlXkXmXbXdX/ 4.f.6X0X[ w G                                 ",
"                                R x z [ q 4 4 U mXfXvXfXfXfXMXlXfXvXlXvXbXvXmXlX! w 6.BXiXp.q G                                 ",
"                                ! 0 w w w w - J vXfXbXbXBXbXfXpXzXfXkXkXzXBXfXbXh.0.6XeXeXs.q G                                 ",
"                                J 0 6 q 4 5.e U fXaXfXsXaXnXvXfXzXbXlXzXvXpXvXdX^ M w 7.f.e ] J                                 ",
"                                K 7.9.} - q e I lXvXmXsXbXbXfXpXpXfXsXnXlXvXmXbX~ 0 z [ 6.9 e J                                 ",
"                                U q } s.] 4.6.K aXrXsXiX0XuXpXiXuXiXrXiXuXuXiXiXE l [ 5 5.{ [ J                                 ",
"                                I 4 [ f.p.9X7.= < 1 = = X X X < o = X O O O * o = [ z 4.- } e I                                 ",
"                                ~ q ] 5.gXaXs.e 8 [ 6 [ w 8 8 4.z 8 z 6 [ z e ] 8 5 8 w w w [ t                                 ",
"                                T - } 6XdXnXf.q { } 4 5 8 4 - } } z 9 6 8 x [ 7.9 5 w x 4.z [ r                                 ",
"                                ~ 3 p.M 0.f.8 - 6 6 6 w ] ] 5.[ w z [ q 7.4 w q w - - 4 w 0 [ b                                 ",
"                                j.P t t # ~ # t % # t # t # # # # t # # t # t # t # # % t t L (                                 ",
"                                                                                                                                "
};
