/* XPM */
static char *_0c85a9162534f90dcf59c3047087d07lDKKmYdMZNkOr4cL[] = {
/* columns rows colors chars-per-pixel */
"32 32 222 2 ",
"   c None",
".  c #7A1A08",
"X  c #7A1A09",
"o  c #7C1B09",
"O  c #7D1B09",
"+  c #7E1B08",
"@  c #7F1B09",
"#  c #7E1B0A",
"$  c #6B1919",
"%  c #6D1918",
"&  c #6C1919",
"*  c #6D1919",
"=  c #6E1919",
"-  c #6F1919",
";  c #771717",
":  c #7E1616",
">  c #7F1616",
",  c #731A10",
"<  c #731A11",
"1  c #721A13",
"2  c #731A13",
"3  c #771913",
"4  c #751A13",
"5  c #721915",
"6  c #721A14",
"7  c #721A15",
"8  c #731917",
"9  c #741915",
"0  c #761914",
"q  c #751817",
"w  c #741917",
"e  c #751917",
"r  c #771817",
"t  c #791913",
"y  c #7A1A12",
"u  c #7E1910",
"i  c #7F1911",
"p  c #7C1912",
"a  c #7C1913",
"s  c #7F1912",
"d  c #791915",
"f  c #7B1815",
"g  c #791816",
"h  c #701918",
"j  c #711918",
"k  c #701919",
"l  c #741818",
"z  c #751818",
"x  c #811B07",
"c  c #861C06",
"v  c #891A07",
"b  c #8C1B05",
"n  c #8E1B06",
"m  c #821B09",
"M  c #841B08",
"N  c #871A09",
"B  c #831A0F",
"V  c #8B1A08",
"C  c #88190E",
"Z  c #8F180E",
"A  c #911B04",
"S  c #911A07",
"D  c #941A05",
"F  c #971A04",
"G  c #971A05",
"H  c #9B1A03",
"J  c #9C1A03",
"K  c #9A1A04",
"L  c #9D1A04",
"P  c #9E140C",
"I  c #92180C",
"U  c #811714",
"Y  c #821615",
"T  c #801616",
"R  c #871514",
"E  c #891711",
"W  c #891513",
"Q  c #8A1513",
"!  c #9A1210",
"~  c #9B1210",
"^  c #9C1210",
"/  c #AC0F0E",
"(  c #AD0F0E",
")  c #B60F0A",
"_  c #B80F09",
"`  c #BE0D09",
"'  c #BF0D09",
"]  c #AE1703",
"[  c #AE1605",
"{  c #A21903",
"}  c #A31903",
"|  c #A11A02",
" . c #A21A02",
".. c #A31A02",
"X. c #A61901",
"o. c #A71901",
"O. c #A51902",
"+. c #A51903",
"@. c #A61902",
"#. c #A71902",
"$. c #A11906",
"%. c #AA1801",
"&. c #AC1900",
"*. c #AD1900",
"=. c #AE1801",
"-. c #A31708",
";. c #A4140A",
":. c #A6110D",
">. c #A7110D",
",. c #B21701",
"<. c #B41700",
"1. c #B51700",
"2. c #B41601",
"3. c #B71600",
"4. c #B61700",
"5. c #B61107",
"6. c #B61404",
"7. c #B91500",
"8. c #B81600",
"9. c #B91600",
"0. c #B91502",
"q. c #BC1500",
"w. c #BD1500",
"e. c #BE1400",
"r. c #BF1400",
"t. c #BC1600",
"y. c #BF1104",
"u. c #B01800",
"i. c #B11900",
"p. c #B31800",
"a. c #B21900",
"s. c #B41800",
"d. c #A11010",
"f. c #C30D06",
"g. c #C00E07",
"h. c #C50E04",
"j. c #CC0B02",
"k. c #CD0B02",
"l. c #CE0F00",
"z. c #CF0F00",
"x. c #C80A09",
"c. c #CE0908",
"v. c #DB0705",
"b. c #D90706",
"n. c #D00F00",
"m. c #D20E00",
"M. c #D30E00",
"N. c #D50D00",
"B. c #D70C00",
"V. c #D60D00",
"C. c #D70D00",
"Z. c #D50F01",
"A. c #D10906",
"S. c #DB0B00",
"D. c #DB0A01",
"F. c #DF0900",
"G. c #DC0B00",
"H. c #DB0C02",
"J. c #D90804",
"K. c #D80904",
"L. c #D80805",
"P. c #C21300",
"I. c #C31300",
"U. c #C71100",
"Y. c #C51200",
"T. c #C51300",
"R. c #C61200",
"E. c #C71200",
"W. c #C41102",
"Q. c #C01400",
"!. c #CA1000",
"~. c #CB1000",
"^. c #CD1000",
"/. c #D4170A",
"(. c #DB1B0F",
"). c #E30400",
"_. c #E00604",
"`. c #E00704",
"'. c #E80400",
"]. c #E90400",
"[. c #E80700",
"{. c #E90700",
"}. c #E90502",
"|. c #E80602",
" X c #EC0600",
".X c #EE0600",
"XX c #EE0703",
"oX c #E10801",
"OX c #E20801",
"+X c #E00A00",
"@X c #E50800",
"#X c #E40900",
"$X c #E60800",
"%X c #F20301",
"&X c #F60100",
"*X c #F70100",
"=X c #F40300",
"-X c #F60300",
";X c #F70300",
":X c #F00400",
">X c #F00500",
",X c #F10500",
"<X c #F20400",
"1X c #F30400",
"2X c #F10602",
"3X c #E61007",
"4X c #E21D15",
"5X c #E4261D",
"6X c #F2211D",
"7X c #EE2621",
"8X c #E12A20",
"9X c #EB2A24",
"0X c #F32723",
"qX c #E0463D",
"wX c #EF534E",
"eX c #ED615C",
"rX c #F4625E",
"tX c #EB7A74",
"yX c #F68D8B",
"uX c #F4AAA7",
"iX c #F6AEAB",
"pX c #F9BEBC",
/* pixels */
"            * * * * * *                 * * * $ * *             ",
"        * * $ k z z * $ * *         * * $ * z z k $ * *         ",
"      * * Y ( c.v.L.x.d.z * *     * $ r d.x.L.v.c.( Y * *       ",
"    * * ^ v.*X*X;X;X;X=XA.R * * * * R A.*X;X;X=X=X=X`.^ * *     ",
"  * * ^ }.%X6X0X,X,X,X,X%XJ.Y * * Y K.%X,X,X,X,X,X,X,X}.~ * *   ",
"  * T L.XXrXyX7X}.XX}. XXXXX` k k ` XXXXXX}.}.XX}.}.XXXXL.: *   ",
"* * >.|.wXpX9X].{.{.{.}.OX}.`.Q Q `.}.{.}.{.{.{.{.{.{.{.OX:.$ * ",
"* k f.#XiXeX).#X#X#X#X#X#X#XOX5._ #X#X#X+X#X#X#X#X#X#X{.OXW.k * ",
"* z k.5XuX4XF.F.+X+X+X+X+X+X+XS.S.+XF.F.+X+X+X+X+X+XF.F.F.y.8 * ",
"$ g k.8XtXH.H.S.H.S.S.S.H.H.S.F.F.H.H.S.S.H.H.H.S.H.H.F.C.6.r $ ",
"* z W.(.qXC.C.H.C.H.C.C.C.C.C.C.C.C.C.C.C.C.H.C.C.C.C.C.E.[ 8 * ",
"* k 5.Z./.C.n.n.n.n.C.n.n.C.n.C.n.n.C.n.C.n.n.Z.n.C.n.W.t.-.* * ",
"* * P n.^.n.^.n.k.n.^.^.n.^.^.^.n.k.^.n.^.^.^.k.n.^.E.a.t.Z $ & ",
"  * U W.!.!.!.!.!.!.!.!.!.^.!.!.l.!.!.!.!.!.!.^.W.r.a.t.%.f &   ",
"  * * ;.!.W.E.E.E.E.E.E.W.W.!.E.E.E.E.E.E.E.W.r.t.a.a.a.I & &   ",
"  * * f 6.P.P.P.P.P.P.P.P.P.P.P.P.P.P.P.P.r.a.=.a.a.a.$.e &     ",
"    * * Q 9.r.r.r.r.r.r.r.r.r.r.r.9.9.a.=.=.=.=.%.=.#.: * *     ",
"      * * Z ,.3.3.9.9.9.3.3.,.a.=.%.X.X.X.X.X.X.X. .y $ *       ",
"        * * C X.#.#.X.X.X. . . . . . . . . . . .L B * *         ",
"        * * * B K K H J J H H H H J J J J H H F y * *           ",
"          * * * y F F F F F F F F F F F F F A t * *             ",
"            * * * y n A A A A A A A A A A V r * *               ",
"                * * 3 b b b b b b b b b N 8 % *                 ",
"                  * $ r c c c c c c c m 8 * %                   ",
"                    * * 1 m x x x x # 7 * *                     ",
"                      * * 1 # + + # 7 * *                       ",
"                        * * 1 . . 1 * *                         ",
"                          * * , , * *                           ",
"                            * * % *                             ",
"                            * * * *                             ",
"                              * *                               ",
"                                                                "
};
