/* XPM */
static char *_e7c85d1485b4110b096026a7817c5a5DDNguYSWrAsc7RFt[] = {
/* columns rows colors chars-per-pixel */
"63 64 170 2 ",
"   c None",
".  c #070808",
"X  c #0B0D0D",
"o  c #0F1112",
"O  c #121415",
"+  c #191B1C",
"@  c #222425",
"#  c #26292A",
"$  c #2B2D2E",
"%  c #282E30",
"&  c #2D3335",
"*  c #343A3C",
"=  c #3B3D3D",
"-  c #313536",
";  c #770000",
":  c #780101",
">  c #7D0B0B",
",  c #4B2627",
"<  c #393E40",
"1  c #4E3F40",
"2  c #3D4344",
"3  c #454647",
"4  c #414749",
"5  c #444A4B",
"6  c #4D4E4E",
"7  c #4C5153",
"8  c #575758",
"9  c #555A5C",
"0  c #555759",
"q  c #6D4545",
"w  c #744444",
"e  c #744B4B",
"r  c #745555",
"t  c #745B5B",
"y  c #636465",
"u  c #6A6A6A",
"i  c #676B6D",
"p  c #6B6F70",
"a  c #6D7173",
"s  c #727373",
"d  c #7C7C7C",
"f  c #737778",
"g  c #800F0F",
"h  c #821313",
"j  c #861A1A",
"k  c #881E1E",
"l  c #8B2424",
"z  c #8E2929",
"x  c #922D2D",
"c  c #953333",
"v  c #983737",
"b  c #9A3B3B",
"n  c #CC0101",
"m  c #CF0C0C",
"M  c #D10606",
"N  c #D40A0A",
"B  c #D80D0D",
"V  c #CF1111",
"C  c #D21313",
"Z  c #D91414",
"A  c #D21C1C",
"S  c #DA1E1E",
"D  c #D32323",
"F  c #DA2323",
"G  c #D52C2C",
"H  c #DA2B2B",
"J  c #D73535",
"K  c #DC3131",
"L  c #DA3D3D",
"P  c #E03C3C",
"I  c #9E4141",
"U  c #A14444",
"Y  c #A44C4C",
"T  c #A84F4F",
"R  c #A65050",
"E  c #AA5454",
"W  c #AC5959",
"Q  c #B15C5C",
"!  c #B46464",
"~  c #B66969",
"^  c #B86B6B",
"/  c #BD7171",
"(  c #DB4444",
")  c #DB4C4C",
"_  c #DD5454",
"`  c #DF5B5B",
"'  c #E04040",
"]  c #E24B4B",
"[  c #E35454",
"{  c #E25E5E",
"}  c #DF6060",
"|  c #C07474",
" . c #C47B7B",
".. c #C87F7F",
"X. c #E36565",
"o. c #E26C6C",
"O. c #E37272",
"+. c #E97474",
"@. c #E57B7B",
"#. c #EA7B7B",
"$. c #7B7E80",
"%. c #848585",
"&. c gray54",
"*. c #8D8F90",
"=. c #8E9192",
"-. c #949696",
";. c #999C9D",
":. c #9C9FA0",
">. c #A4A7A8",
",. c #AAABAB",
"<. c #A1A1A0",
"1. c #AFB1B2",
"2. c #B7B7B6",
"3. c #BABBBA",
"4. c #C68181",
"5. c #CC8585",
"6. c #CE8B8B",
"7. c #D18C8C",
"8. c #D69393",
"9. c #DA9696",
"0. c #DC9B9B",
"q. c #E68282",
"w. c #EB8585",
"e. c #E78888",
"r. c #E98D8D",
"t. c #EB9393",
"y. c #E19E9E",
"u. c #EC9B9B",
"i. c #F09B9B",
"p. c #E4A4A4",
"a. c #EDA5A5",
"s. c #EDABAB",
"d. c #E4A9A9",
"f. c #F2A5A5",
"g. c #F2ADAD",
"h. c #F1ADAD",
"j. c #EFB0B0",
"k. c #EEBABA",
"l. c #F3B1B1",
"z. c #F2B2B2",
"x. c #F4B3B3",
"c. c #F4B0B0",
"v. c #F2B3B3",
"b. c #F3BCBC",
"n. c #C3C5C6",
"m. c #C6C7C8",
"M. c #CCCCCC",
"N. c #D2D4D4",
"B. c #DCDCDC",
"V. c #F4C3C3",
"C. c #F6CACA",
"Z. c #F7D3D3",
"A. c #F8D5D5",
"S. c #F7D9D9",
"D. c #F8DCDC",
"F. c #DFE0E0",
"G. c #E4E4E3",
"H. c #E8E8E6",
"J. c #EEEEEC",
"K. c #FAE4E4",
"L. c #FBECEC",
"P. c #F0F0EE",
"I. c #EFEFF0",
"U. c #F5F5F4",
"Y. c #FDF4F4",
"T. c #F8F8F7",
"R. c white",
"E. c #FFFEFE",
"W. c #FEFCFC",
"Q. c #FFFEFE",
/* pixels */
"                                                ; : ; ; ; ; : ; ; : ; : :                                                     ",
"                                        : ; ; ; ; : : g g h h h g g : ; ; ; ; ; ;                                             ",
"                                  ; ; ; ; g k b Q | 5.8.9.9.9.9.8.5. .^ E c j : ; ; ; ;                                       ",
"                              ; ; ; g c ! 7.p.h.x.x.x.g.g.g.g.g.f.x.x.g.s.a.y.5.E x > ; ; ;                                   ",
"                            ; ; h U 5.s.x.x.f.i.w.+.{ [ ] ( P ( ] [ X.+.r.i.x.V.b.d.4.U h ; ; ;                               ",
"                        ; ; > U 7.g.x.f.r.X.P F Z B B B N N N N M N M N C L K.W.W.Y.D.b.7.Y h ; ;                             ",
"                      ; ; l | s.c.f.+.P Z B B B B B B B B N N N N N M N N A C.W.W.W.W.W.A.j.5.v : ; ;                         ",
"                    ; ; b 9.l.h.#.P F ] [ H N B B B B M N N N N N M N M N N ( S.W.W.W.W.W.D.g.d.~ h ; :                       ",
"                  ; : R p.x.i.[ Z P b.Y.W.Z.P B N B N B N N N N N N M M M M M J f.L.W.W.W.W.s.a.s.5.z ; ;                     ",
"                ; > W s.l.e.K B H Z.W.W.W.W.h.C B B N N N N M M M M N M M M M n M ( e.b.C.a.G _ a.s.8.v ; ;                   ",
"              ; ; E s.g.#.S B B w.W.W.W.W.W.A.F M B M N H r.e.F M M M M M n M M M n n M m n n n J t.g.0.b ; ;                 ",
"            ; ; I d.g.#.S B B Z b.W.W.W.W.W.C.Z N M N S V.W.W.r.M M M M M M n n n n n n n n n n n D e.g.0.b ; ;               ",
"            ; x 0.x.w.S B B B Z b.W.W.W.W.W.w.N N N M L Y.W.W.t.M M M n M n n M M n n n n D t.) n n A e.s.0.z ; :             ",
"          ; h 4.x.t.F B B B B B w.W.W.W.W.C.F N M N N C s.K.b.H M M M M n M M n n n n n n ) W.K.J n n D t.s.6.j ;             ",
"        ; ; W s.f.P N B B N N N S u.K.K.s.K N M N M M M C H C M n M n n M n M n n n n n n D D.W.7.n n n G u.s./ g ;           ",
"        ; l 0.g.i.t.X.Z N B N N N C H H B M N M M M M M M M M M M n n M n n n n n n n n n n ` D.o.n n n n ) a.a.Y ; :         ",
"      ; : ^ g.b.Y.W.Y.[ N N N N N M N M M N M M M M M M n M M n M n n n n n n n n n n n n n n A M n n n n n O.s.8.l :         ",
"      ; x p.l.L.W.W.W.t.N N N M M N M M M M M M M m n M n M n M n n C G J D m n n n n n n n n n n n n n n n A t.s.~ : ;       ",
"    ; : ~ g.V.W.W.W.W.f.M M N N M M N M M M M M n n m n M n M n M ` V.L.T.K.b._ n n n n n n n n n n n n n n n ) s.y.z :       ",
"    ; k 9.h.V.W.W.W.W.r.M N M M M M M M M M M n n n n m n n n n ` L.W.W.W.W.W.Y.5.n n n n n n n n n n A A n n m e.s./ : >     ",
"    ; Y s.u.l.W.W.W.W.{ M M M M M M M M n n M M n n n n n n n V C.W.W.W.W.W.W.W.U._ n n n n n n n n ` D.Z._ n n ( s.0.l ;     ",
"  ; >  .j.o.u.W.W.W.A.D M m M M M M n n M n n n n n n n n n n D K.W.W.W.W.W.W.W.W.a.n n n n n n n A D.W.W.K.J n V t.s.W ; ;   ",
"  ; k 0.h.L X.W.W.Y.X.M n M m n n M n M M n n n n n n n n n n V Z.W.W.W.W.W.W.W.W.b.m n n n n n n _ W.W.W.W.r.n n ` s.6.> ;   ",
"  ; I s.t.A C u.C.o.M n M n n n n n n n n n n n n n n n n n n n @.W.W.W.W.W.W.W.W.u.n n n n n n n } W.W.W.W.C.m n G a.p.c ;   ",
"; ; ! l.@.N n N C n n M n n n n n n n G X.} J n n n n n n n n n C a.W.W.W.W.W.W.G.J n n n n n n n o.W.W.W.W.K.D n m r.s.W ;   ",
"; : 4.l.} n n n n n n n n n n n n n X.K.W.W.L.q.m n n n n n n n n V o.V.L.T.K.l.J n n n n n n n n _ W.W.W.W.K.D n n } s./ > ; ",
"; > 8.s.( n n n n n n n n n n n n ( L.W.W.W.W.W.} n n n n n n n n n n m G J D m n n n n n n n n n D K.W.W.W.Z.V n n ) s.6.h ; ",
"; j 0.a.J n n n n n n n n n n n n a.W.W.W.W.W.W.D.A n n n n n n n n n n n n n n n n n n n n n n n n u.W.W.W.d.m n n J a.9.j ; ",
"; l 0.a.G n n n n n n n n n n n V Z.W.W.W.W.W.W.T.( n n n n n n n n n n n n n n n n n n n n n n n n D V.W.K.( n n n G a.0.l ; ",
"; j 0.a.G n n n n n n n n n n n A D.W.W.W.W.W.W.W.` n n n n n n n n n n n n n n n n n n n n n n n n n D ` J n n n n G a.y.j ; ",
"; h 9.s.( n n n n n n n n n n n m b.W.W.W.W.W.W.T.( n n n n n n n n n n n n n n n n n n n n n n n n n n n n n n n n _ s.8.h ; ",
"; > 4.j.r.J m n n n n n n n n n n @.W.W.W.W.W.W.Z.C n n n n n n n n n n n n n n n n n n n n n n n n n n n n n n V _ a.s.~ : ; ",
"; ; c 0.s.a.+.( D m n n n n n n n A V.W.W.W.W.T.} n n n n n n n n n n n n n n n n n n n n n n n n m m V A D ( X.e.s.s.4.j ;   ",
"  ; ; x  .a.s.h.u.e.O.` ) L J G D A ( k.Y.W.D.+.C V V V V m V m m m V m V V A D D D J L ) ` X.O.@.q.e.t.u.a.s.h.s.y.^ j ; ;   ",
"    ; ; g b | y.d.s.g.g.s.s.a.a.a.u.u.u.k.b.a.r.r.r.r.r.r.r.e.r.8.r.r.t.t.t.t.u.a.a.a.s.s.j.j.g.s.s.s.s.a.y.9.4.W l : ; :     ",
"      ; ; ; : j c E ^  .5.8.0.y.y.p.a.d.a.a.s.d.d.s.s.s.d.d.j.j.s.s.s.s.d.s.d.p.p.y.0.0.5. ./ ~ Q W Y b c z h : ; ; ;         ",
"            ; ; ; ; ; : > h j k l x x c v v I I U U U U U U U U U I U b b v c x z l j > g : : ; ; ; ; ; ; ; ; ; ;             ",
"                    : ; ; : ; ; ; ; ; ; ; ; ; ; ; ; ; ; : : : : ; ; ; ; ; ; ; ; ; : : ; ; : : ; ;                             ",
"                                        , q e w e w w w w w w w w w w e e e r r r t 1                                         ",
"                                        - i s s s s s s s s s s s s s s a s s s s s 3                                         ",
"                                        & y s s u u u u s u u u u u a u u u u u s s =                                         ",
"                                        % y s u u u u u u u u u u u u u u u u u s s =                                         ",
"                                        # y s u u u u u u u u u u u u u u u u u s s =                                         ",
"                                        # u s s u u u u u u u u u u u u y u u u s s 3 o                                       ",
"                                        # u s u u u u y y i i i u u u u u u u u u s 6 o                                       ",
"                                      o - s s u u u u u u i i i u u u u y u u u s s 8 O                                       ",
"                                      o , s s u u u y u u u i i u u u u u u u u s s y +                                       ",
"                                      o 5 s u u u u u u u u i i y u u u u u u u u s u @ .                                     ",
"                                      O 7 s s u u u y u s s ~ %.%.d f u u u y u u s s % X                                     ",
"                                      @ y d s d %.-.,.3.M.B.F.G.H.F.B.M.2.<.&.d s s s = +                                     ",
"                                      7 M.F.B.B.H.J.P.P.P.J.J.J.P.J.J.P.P.J.H.B.M.m.M.*.&                                     ",
"                                      y T.W.U.J.J.J.J.P.J.J.J.J.J.J.J.J.J.J.J.J.P.T.W.M.<                                     ",
"                                    % %.W.W.J.J.J.J.J.J.J.J.J.J.J.J.J.J.J.J.J.J.J.U.W.H.7                                     ",
"                                    & ,.W.T.J.J.J.J.J.J.J.J.J.J.J.J.J.J.J.J.J.J.J.P.W.W.a $                                   ",
"                                    2 N.W.T.J.J.J.J.J.J.J.J.J.J.J.J.J.J.J.J.J.J.J.I.W.W.;.&                                   ",
"                                    9 I.W.U.J.J.J.J.J.J.J.J.J.J.J.J.J.J.J.J.J.J.J.I.T.W.n.*                                   ",
"                                    a W.W.I.I.J.J.J.J.J.J.J.J.J.J.J.J.J.J.J.J.J.J.J.U.W.F.4                                   ",
"                                    9 I.W.T.I.I.J.J.J.J.J.J.J.J.J.J.J.J.J.J.J.J.J.I.T.W.N.2                                   ",
"                                    - ;.W.W.W.T.P.I.I.I.J.J.I.J.J.J.J.J.J.J.J.P.U.W.W.W.=.&                                   ",
"                                    - < =.J.W.W.W.W.T.T.U.U.U.U.U.U.U.Y.U.T.W.W.W.W.T.>.2                                     ",
"                                      & - 9 >.F.T.W.W.W.W.W.W.W.W.W.W.W.W.W.W.W.J.n.f * -                                     ",
"                                        - & & 4 i =.1.m.N.F.G.G.G.F.B.N.m.2.:.$.9 * & &                                       ",
"                                            & & & & - * < 2 5 5 5 5 2 2 * - & & & &                                           ",
"                                                  & - & & & & & & & & & & & &                                                 "
};
