/* XPM */
static char *result[] = {
/* columns rows colors chars-per-pixel */
"32 32 74 1 ",
"  c #202020",
". c gray16",
"X c gray20",
"o c #343434",
"O c #353535",
"+ c gray21",
"@ c #373737",
"# c gray22",
"$ c #393939",
"% c #3A3A3A",
"& c gray23",
"* c #3C3C3C",
"= c gray24",
"- c #3E3E3E",
"; c #3F3F3F",
": c gray25",
"> c #414141",
", c gray26",
"< c #434343",
"1 c #444444",
"2 c gray27",
"3 c #464646",
"4 c gray28",
"5 c #484848",
"6 c #494949",
"7 c gray29",
"8 c #4B4B4B",
"9 c #4C4C4C",
"0 c gray30",
"q c #4E4E4E",
"w c gray31",
"e c #505050",
"r c #515151",
"t c gray32",
"y c #535353",
"u c gray33",
"i c #555555",
"p c #565656",
"a c gray34",
"s c #585858",
"d c gray35",
"f c #5A5A5A",
"g c #5B5B5B",
"h c gray36",
"j c #5D5D5D",
"k c gray37",
"l c #5F5F5F",
"z c #606060",
"x c gray38",
"c c #626262",
"v c gray39",
"b c #646464",
"n c #656565",
"m c gray40",
"M c #676767",
"N c #686868",
"B c DimGray",
"V c #6A6A6A",
"C c gray42",
"Z c #6C6C6C",
"A c #6D6D6D",
"S c gray43",
"D c #6F6F6F",
"F c gray44",
"G c #727272",
"H c gray45",
"J c gray46",
"K c gray48",
"L c #7B7B7B",
"P c #8B8B8B",
"I c gray59",
"U c #9A9A9A",
"Y c gray61",
"T c None",
/* pixels */
"TTTTTTTTTTTTTTTTTTTTTTTTTTTTTTTT",
"TTTTTTTTTTTTTTTTTTTTTTTTTTTTTTTT",
"TTTTTTTTTTTTTTTTTTTTTTTTTTTTTTTT",
"TTTTTTTTTTTTTTTTTTTTTTTTTTTTTTTT",
"TTTTTTTTTTTTTTTTTTTTTTTTTTTTTTTT",
"TTTTTTTTTTTTTTTTTTTTTTTTTTTTTTTT",
"TTTTTTTTTTTTTTTTTTTTTTTTTTTTTTTT",
"TTTTTTTTTTTTTTTTTTTTTTTCCTTTTTTT",
"TTTTTTTTTTTTTTTTTzlkTTBVVBTUUYTT",
"TTTTTTTTTTTTTTTTxkjhgxvcvcGPIYTT",
"TTTTTTTTTTTTTTThpusddjjkzzzcmHbT",
"TTTTTTTTTTTTTleerrasshhjzllksagT",
"TTTTtTTTTTTTg95wrrTTTTTTTTTTsutT",
"TTTTr08447rnl83TTTTTTTTTTTTTT5:T",
"TTTVq62<,<2hZZmTmmmTTTTTTTTTT:=T",
"TTTn4<,,>:TTTNBMMMMMMTTTTTTT1;*T",
"Frfe,,>>TTTTTTNBBBBMkTTTTTTz<=&T",
"Tj1,,>TTTTTTTTnmmcdmcTTTTTn5-=TT",
"TA<>>TTTTTTTTTTTTT:MFDTTTc3==TTT",
"TDs<TTTTTTTTTTTT$=TdcBCMM3**TTTT",
"TBSKTTTqTTTTTT++$%%=463:t:TTTTTT",
"TNMJLTi048yTTOO+#$$$%** .TTTTTTT",
"TMbMbiuq3249*oOO@###%&TTTTTTTTTT",
"Tmvcsyyq211>Oooo+@@@TTTTTTTTTTTT",
"TTccdttq2<<:OXXXO@TTTTTTTTTTTTTT",
"TTTTstrq1<,:OXTTTTTTTTTTTTTTTTTT",
"TTTTTTTTTTTTTTTTTTTTTTTTTTTTTTTT",
"TTTTTTTTTTTTTTTTTTTTTTTTTTTTTTTT",
"TTTTTTTTTTTTTTTTTTTTTTTTTTTTTTTT",
"TTTTTTTTTTTTTTTTTTTTTTTTTTTTTTTT",
"TTTTTTTTTTTTTTTTTTTTTTTTTTTTTTTT",
"TTTTTTTTTTTTTTTTTTTTTTTTTTTTTTTT"
};
